<?xml version="1.0" encoding="UTF-8" standalone="no"?>
<!-- Created with Inkscape (http://www.inkscape.org/) -->

<svg
   width="47.702339mm"
   height="19.836765mm"
   viewBox="0 0 47.702339 19.836765"
   version="1.1"
   id="svg1062"
   sodipodi:docname="logo-enu.svg"
   inkscape:export-filename="/Users/ddd/Desktop/projects/enu-src/fvd/ui/public/images/logo-enu.png"
   inkscape:export-xdpi="96"
   inkscape:export-ydpi="96"
   inkscape:version="1.1.2 (b8e25be8, 2022-02-05)"
   xmlns:inkscape="http://www.inkscape.org/namespaces/inkscape"
   xmlns:sodipodi="http://sodipodi.sourceforge.net/DTD/sodipodi-0.dtd"
   xmlns="http://www.w3.org/2000/svg"
   xmlns:svg="http://www.w3.org/2000/svg">
  <sodipodi:namedview
     id="namedview1175"
     pagecolor="#ffffff"
     bordercolor="#666666"
     borderopacity="1.0"
     inkscape:pageshadow="2"
     inkscape:pageopacity="0.0"
     inkscape:pagecheckerboard="0"
     inkscape:document-units="mm"
     showgrid="false"
     inkscape:zoom="3.671815"
     inkscape:cx="68.903253"
     inkscape:cy="110.57202"
     inkscape:window-width="1440"
     inkscape:window-height="806"
     inkscape:window-x="0"
     inkscape:window-y="25"
     inkscape:window-maximized="1"
     inkscape:current-layer="svg1062" />
  <defs
     id="defs1059">
    <linearGradient
       id="linearGradient4113"
       inkscape:swatch="solid">
      <stop
         style="stop-color:#000000;stop-opacity:1;"
         offset="0"
         id="stop4111" />
    </linearGradient>
  </defs>
  <g
     id="layer1"
     transform="translate(-0.29934958,-0.8722741)"
     inkscape:export-filename="/Users/ddd/Documents/enu_logo/logo-en.png"
     inkscape:export-xdpi="190.18909"
     inkscape:export-ydpi="190.18909">
    <g
       id="Layer1003"
       style="stroke-width:0;stroke-miterlimit:4;stroke-dasharray:none"
       transform="matrix(0.26458333,0,0,0.26458333,-19.574589,-15.836216)">
      <path
         d="m 130.8637,110.3034 c 0.0473,0.1032 0.0768,0.9496 0.009,1.1688 -0.1111,0.3597 -0.7253,0.3245 -1.0437,0.322 -0.4589,-0.003 -0.8288,0.0428 -1.3249,0.0411 -0.4473,-0.001 -0.8331,0.0416 -1.3243,0.0416 -0.9097,0 -1.7456,0.0426 -2.6904,0.0411 l -1.3235,0.0426 c -0.5411,0.0394 -0.7503,0.5394 -1.654,1.0366 -0.2781,0.1528 -0.6177,0.3254 -0.9182,0.4476 -1.3365,0.542 -2.747,0.8946 -4.1286,1.3348 -0.8558,0.2727 -1.9341,0.5278 -2.8593,0.5349 -0.5704,0.004 -2.7768,0.1412 -3.14,0.254 -0.316,0.0975 -0.5374,0.3827 -0.6372,0.7282 l -0.6279,2.1039 c -0.0552,0.1905 -0.1136,0.2871 -0.172,0.4907 -0.1707,0.5958 -0.7053,1.1554 -1.1251,1.6067 l -1.5732,1.8212 c -0.0794,0.0851 -0.0763,0.1009 -0.1463,0.1851 -0.0601,0.0714 -0.1026,0.0998 -0.1633,0.1678 -0.0734,0.0825 -0.0722,0.1026 -0.146,0.1851 -0.8172,0.917 -1.989,2.1904 -2.6586,3.1779 0.1925,0.0159 0.4618,0.0726 0.6619,0.0831 0.269,0.0145 0.4825,0.0204 0.7064,0.0394 0.9488,0.0782 1.8774,0.007 2.8296,0.1502 0.4544,0.0686 1.0034,0.008 1.4547,0.076 0.5871,0.089 1.4735,-0.0167 2.0293,-0.1576 1.0094,-0.2562 2.1155,-0.3841 3.0739,-0.6925 1.2668,-0.409 2.975,-1.2396 4.2123,-1.7898 l 3.587,-1.6282 0.5658,-0.0547 c -0.0828,0.2282 -0.6653,0.4943 -0.8711,0.6185 -1.0863,0.6556 -1.7292,1.0664 -2.2884,2.2238 -0.4218,0.8708 -0.9134,2.9063 -1.1529,3.8562 -0.1791,0.7101 -0.5783,3.1561 -0.6571,3.3999 l -0.3282,0.707 c -0.8442,0 -1.6311,-0.1511 -2.4602,-0.2719 -1.4346,-0.208 -2.8006,-0.3999 -4.2267,-0.6568 -0.6197,-0.1111 -1.5948,-0.3963 -2.2114,-0.3963 -0.3055,0 -0.6956,0.7181 -1.0856,1.1073 -0.7971,0.7942 -1.5299,1.3841 -2.3959,2.0752 -0.1372,0.1094 -0.2902,0.212 -0.4189,0.3263 -0.6185,0.5493 -1.2646,2.0729 -1.645,2.8255 0.4607,0.0383 0.8646,0.1523 1.3113,0.22 0.108,0.0162 0.2673,0.0252 0.4567,0.0281 h 0.2934 c 0.7585,-0.01 1.7725,-0.0921 2.1246,-0.2013 0.2633,-0.0816 0.5791,-0.201 0.7939,-0.3642 0.1092,-0.0825 0.1001,-0.131 0.1109,-0.3033 0.0385,-0.6384 0.0544,-0.9859 -0.5653,-1.2983 -0.4793,-0.2418 -0.3724,-0.1327 -0.718,-0.565 0.3161,-0.1522 0.8564,-0.2174 1.1594,-0.3724 0.1939,-0.1004 0.2038,-0.2753 0.2645,-0.5219 0.0561,-0.2296 0.1063,-0.3537 0.2313,-0.555 0.2114,0 0.5848,0.034 0.6936,0.1346 0.1035,0.0961 0.1755,0.4839 0.2171,0.6523 l 0.5792,1.1594 c 0.2599,-0.0604 0.6848,-0.6889 0.858,-0.9224 0.2557,-0.3442 0.411,-0.8487 1.0222,-0.7543 1.0689,0.1649 2.1761,0.284 3.223,0.4218 l 6.8167,0.4266 c -0.3163,-1.8468 -0.3396,-1.5888 0.0522,-3.5915 0.0672,-0.3439 0.0896,-0.6574 0.2248,-0.9751 0.1136,-0.2662 0.2971,-0.5704 0.462,-0.7801 0.0871,-0.1109 0.1724,-0.2092 0.2602,-0.3195 0.0783,-0.0995 0.1942,-0.2659 0.2824,-0.3376 0.3869,-0.3178 2.4789,-0.6284 3.0228,-0.6616 1.2827,-0.0782 2.7516,0.2823 4.2809,0.0595 0.3912,-0.0564 0.8088,-0.1091 1.1841,-0.1397 0.4492,-0.0369 0.8061,3e-4 1.203,-0.0808 2.0177,-0.4127 4.5082,-2.1765 5.8019,-3.7177 0.0661,-0.0785 0.0936,-0.1012 0.1534,-0.178 0.0975,-0.1253 0.1933,-0.244 0.2897,-0.3724 0.3679,-0.4924 0.7492,-1.0214 1.0346,-1.5738 0.0771,-0.1503 0.1489,-0.2566 0.2345,-0.4281 0.0833,-0.1658 0.1261,-0.2877 0.2069,-0.4549 l 0.5936,-2.0563 c 0.045,-0.3186 -0.0567,-1.0015 -0.1072,-1.3422 -0.1817,-1.226 0.3699,-1.8978 -0.6074,-2.8695 l -1.0965,-1.1806 c -0.3798,-0.3799 -0.7832,-0.7773 -1.2101,-1.1075 -0.4246,-0.3277 -0.8254,-0.7013 -1.275,-1.0021 -0.4592,-0.3072 -0.9377,-0.64 -1.4627,-0.8552 -0.2786,-0.1134 -0.4929,-0.2174 -0.8073,-0.3101 -0.8028,-0.237 -2.1104,-0.4745 -2.9531,-0.5236 -0.184,0 -0.1628,0.0414 -0.3725,0.0414 z M 117.1638,81.4071 c 0.4663,0.2236 0.4573,-0.1106 0.4553,-0.5794 v -1.2425 c -0.1789,0.2064 -0.2965,1.4911 -0.4553,1.8219 z M 93.325,105.1702 c 0.1381,-0.0732 0.7195,-0.474 0.7861,-0.58 l 0.4138,-0.9519 c -1.1573,0 -0.9592,-0.1822 -1.078,0.7016 -0.0368,0.2718 -0.1219,0.5454 -0.1219,0.8303 z m -3.2697,-21.155 c 0.0521,0.2239 0.3628,0.7495 0.4963,0.9936 0.3946,-0.1049 0.548,-0.9925 1.6668,0.1139 0.3237,0.32 0.0448,0.1296 0.4856,0.4246 l -0.7311,-2.0012 -0.1791,-0.2344 c -0.4513,0 -0.7699,-0.0015 -1.1685,0.2389 -0.1559,0.0941 -0.4807,0.3317 -0.57,0.4646 z m 29.1784,-19.6231 c 0,0.1933 -0.0556,0.2818 -0.1318,0.4059 -0.2463,0.3997 -0.3254,0.8595 -0.324,1.3743 0.003,0.7795 -0.0411,1.4536 -0.0411,2.194 0,1.5154 -0.0468,2.9041 -0.0403,4.4308 l -0.0425,1.0752 v 2.2357 c 9e-4,0.4056 -0.0417,0.6587 -0.0414,1.0763 6e-4,0.8286 0.0253,1.9766 0.001,2.7751 -0.007,0.2157 -0.0442,0.2818 -0.0436,0.5357 l 0.1664,0.9533 c 0,-1.4751 0.047,-2.8794 0.0411,-4.3886 -0.001,-0.394 0.0419,-0.6576 0.0419,-1.0757 v -2.236 c -2e-4,-0.4178 0.0423,-0.6709 0.0411,-1.0766 -0.001,-0.731 0,-1.4621 0,-2.1937 0,-0.652 0.0434,-3.9694 0.0939,-4.3778 0.2086,-1.6977 0.909,-1.2283 0.32,-2.3293 l -0.3308,-0.5794 c -0.483,0.129 0.2897,0.6829 0.2897,1.2008 z m -10.5956,37.5488 c 0.7279,0.1693 1.3935,0.1528 2.2782,0.1639 0.4348,0.005 0.6749,0.1188 1.059,-0.0967 0,0 0.3875,-0.826 0.3875,-0.8952 0,-0.1978 -0.5386,-0.1967 -0.786,-0.2066 -0.7753,-0.0323 -1.8664,-0.009 -2.6331,0.0975 -0.3266,0.0454 -0.3056,0.1004 -0.3056,0.9371 z m 9.0227,-37.5488 c 0,0.5998 0.4274,0.6111 0.4977,1.696 0.0431,0.655 -8e-4,1.4011 -8e-4,2.154 0,1.4723 -0.0499,2.7734 -0.0414,4.3472 0.002,0.3552 -0.0414,0.6353 -0.0414,1.0347 0,2.5619 -0.059,5.1777 -0.0831,7.7417 h 0.1659 c 0,-0.7555 0.0414,-1.3822 0.0414,-2.1529 0,-1.8159 0.0481,-3.5473 0.0411,-5.4233 -0.002,-0.394 0.0413,-0.6576 0.0413,-1.0766 0,-0.731 0,-1.4624 0,-2.1943 0,-0.7838 0.042,-1.4309 0.042,-2.1937 0,-1.1721 -0.0938,-2.4752 0.4,-3.4498 0.3325,-0.6573 0.1967,-0.6862 -0.4,-1.7249 -0.0822,0.0596 -0.6627,0.8618 -0.6627,1.2419 z m 0.0827,42.2682 c 0.0794,0.2966 0.7229,0.4556 0.8691,0.4556 1.8939,0 3.6644,-0.1239 5.546,-0.1239 l 2.0696,-0.0417 c 0.2837,0.001 0.4394,-0.0292 0.6619,-0.0419 0.4561,-0.0241 0.9479,0.0428 1.3836,-0.0233 l 1.3895,-0.0589 c -0.004,-0.2055 -0.0856,-0.4802 -0.2245,-0.5636 -0.14,-0.0839 -0.4751,-0.0195 -0.7288,-0.0172 l -2.6121,0.2021 c -0.1352,0.015 -0.2721,-0.002 -0.4079,0.006 -0.182,0.01 -0.1729,0.0375 -0.3711,0.0431 l -1.9465,0.0817 -4.0147,0.0413 c -0.2761,0 -0.5519,0 -0.8289,-0.001 -0.2968,-8e-4 -0.4581,0.0425 -0.7852,0.0425 z m 4.8425,-24.6322 c 0.1295,0.1763 0.6071,0.4533 0.8912,0.5159 l 6.8544,-0.2616 c 0.1999,-0.0224 0.4893,-0.0057 0.6985,-0.0051 0.282,0.0011 0.3781,-0.0445 0.6605,-0.0431 0.7554,0.0028 0.6202,0.0133 1.3665,-0.0819 -0.0107,-0.4726 -0.1522,-0.8104 -0.6857,-0.7285 -0.9558,0.146 -1.9783,0.1601 -2.7195,0.2616 l -3.5053,0.178 c -0.2767,-8e-4 -0.4995,-5e-4 -0.7164,0.0292 z m -5.8354,13.993 c 0.1133,-0.0763 0.2074,-0.1729 0.295,-0.2835 0.3884,-0.4876 0.4091,-0.472 0.7396,-1.0828 l 1.7512,-3.0921 0.6489,-1.7929 c -0.1888,0 -0.9482,0.0822 -1.0582,0.142 -0.1939,0.1058 -0.3506,0.5239 -0.4592,0.741 -0.7262,1.4522 -1.1149,1.2989 -1.603,3.2397 -0.123,0.4884 -0.3143,1.6283 -0.3143,2.1286 z M 91.0069,85.5882 c 0,1.1653 0.8067,3.5308 1.3663,4.6369 l 1.3243,-0.4139 c 0,-0.288 -0.0541,-0.4958 -0.0949,-0.7753 -0.099,-0.6794 -0.3034,-1.491 -0.6421,-2.048 -0.1162,-0.1913 -0.1979,-0.3557 -0.3223,-0.5474 l -0.3796,-0.5306 -0.9617,-0.8598 c -0.1962,-0.0748 -0.29,0.417 -0.29,0.5381 z m 1.3663,-2.4007 c 0.0056,0.2602 1.4108,4.5 1.5471,4.9102 0.3342,1.0046 0.0848,0.4992 0.6046,1.5477 0.3844,0 0.2022,-0.5199 0.2067,-0.993 0.0042,-0.4141 -0.265,-2.8933 -0.3186,-3.3245 -0.0967,-0.7721 -0.0737,-2.2138 -0.5777,-2.404 -0.1874,-0.0706 -0.2985,-0.0513 -0.5032,-0.0213 -0.587,0.087 -0.6077,0.2027 -0.9589,0.2849 z m 14.4028,19.8714 c 0,0.8544 -0.3881,0.7971 -1.2852,0.7841 -0.2722,-0.004 -0.4624,0.003 -0.2415,0.2412 0.6173,0.6662 1.0459,1.171 2.0539,1.0332 0.4028,-0.0555 0.9885,0.012 1.5421,0.0111 0.0465,-0.555 0.6466,-1.6486 -0.2163,-2.5157 -0.1409,-0.1418 -0.2409,-0.2583 -0.4204,-0.366 -0.4779,-0.2115 -0.8915,-0.2458 -1.3175,0.0578 -0.2685,0.1919 -0.1151,0.366 -0.1151,0.7543 z m 1.4485,-4.2225 c 0.002,0.1007 0.3339,1.5551 0.5355,1.658 0.1264,0.0652 2.7547,0.005 3.1552,-0.0365 0.5114,-0.0533 0.7829,-0.0641 0.7795,-0.8762 -0.003,-0.862 0.1284,-0.1154 -0.1661,-1.408 -0.2384,0 -3.9665,0.5839 -4.3041,0.6627 z M 94.6074,82.9389 c 0,0.4595 0.2858,2.7349 0.3303,3.3965 l 0.2965,2.9729 0.1601,0.3371 c 0.8666,0 0.7331,0.066 0.7566,-0.349 0.0329,-0.5856 0.03,-0.8135 0.03,-1.4315 l 0.0409,-2.98 c 0,-0.3382 0.1423,-1.6827 -0.0922,-1.8539 -0.0085,-0.0056 -0.7245,-0.2576 -0.8594,-0.2576 -0.3195,0 -0.4315,0.1114 -0.6628,0.1655 z m -6.7459,2.1943 c 0.0397,0.1687 0.3155,0.5343 0.4224,0.6953 0.1619,0.2427 0.2988,0.4479 0.4632,0.6954 l 1.8465,2.7493 c 0.3316,0.4978 0.6049,0.8918 0.9105,1.4071 0.2043,-0.0048 0.3231,-0.0986 0.3727,-0.2897 0.0099,-0.0408 -0.7458,-2.1614 -0.8234,-2.406 -0.2209,-0.6962 -0.4961,-2.014 -0.7356,-2.4934 -0.127,-0.254 -0.2532,-0.4464 -0.3946,-0.6817 L 89.517,84.1394 c -0.7481,0.1743 -1.2833,0.4376 -1.6555,0.9938 z m 28.7232,21.8166 c 0,0.1287 0.0233,0.0544 0.2174,0.2384 0.7521,0.7129 1.1313,0.7707 2.2689,1.0009 0.5292,0.1074 1.0981,0.1298 1.7365,0.1284 0.248,0 0.4229,-0.0425 0.9096,-0.0423 2.8644,6e-4 5.4309,-0.0688 8.2772,-0.1658 l -0.1655,-0.8283 c -0.2897,0 -0.5794,6e-4 -0.8691,0 -0.3453,0 -0.5763,0.0428 -0.8674,0.0431 -0.6478,9e-4 -1.1557,0.0397 -1.7816,0.0397 -0.6446,0 -1.1387,0.0448 -1.7799,0.0417 l -5.2577,0.1638 c -0.3716,0.001 -0.4365,0.059 -0.8291,0.005 -0.2883,-0.0397 -0.4867,-0.1027 -0.701,-0.2092 -0.2104,-0.1035 -0.3722,-0.2223 -0.5959,-0.3147 -0.3075,-0.1256 -0.5624,-0.3299 -0.5624,-0.1003 z m -11.0089,-13.3716 0.8277,0.9527 c 1.1308,-0.5987 3.5748,-2.3156 4.7183,-3.1051 -0.0731,-0.3138 -0.3943,-0.72 -0.5885,-0.9428 -0.4076,-0.4666 -0.2406,-0.2968 -0.7775,-0.7546 l -1.0454,0.9411 c -0.4014,0.404 -0.8941,0.8229 -1.3238,1.2016 -0.0953,0.084 -0.1545,0.1619 -0.2483,0.2484 -0.1058,0.098 -0.1622,0.1196 -0.2702,0.2265 -0.3311,0.3285 -1.1486,1.0179 -1.2923,1.2322 z m -8.8985,-9.3563 3e-4,2.1948 c 0.0014,0.2767 -0.036,0.3938 -0.0431,0.6191 -0.006,0.2027 0.0125,0.4221 0.0014,0.6231 -0.0278,0.5193 -0.1097,1.3419 -0.0383,1.817 l 0.9905,0.2939 c 0.0345,-0.1485 0.0637,-0.1533 0.1012,-0.3546 l 0.4663,-2.8865 c 0.0623,-0.3713 0.4841,-2.9517 0.5085,-3.2998 0.0289,-0.4144 -1.3983,-0.4938 -1.7711,-0.4054 -0.4056,0.0964 -0.2157,0.754 -0.2157,1.3984 z m 5.7532,6.9142 1.4485,0.9108 c 0.0298,-0.1125 0.9519,-1.4522 1.1038,-1.7107 l 1.7932,-2.9679 c -0.3195,-0.4771 -1.2155,-0.8586 -1.7385,-1.0763 -0.1094,0.2069 -0.2052,0.3682 -0.3169,0.5939 l -0.3317,0.6199 c -0.2284,0.4085 -0.4186,0.805 -0.6582,1.205 -0.123,0.2058 -0.1919,0.3932 -0.3152,0.5953 z m 31.0819,-7.4106 -0.2067,-1.0346 c -0.2021,-0.0477 -1.3172,-0.0071 -1.6991,-0.0023 -0.2389,0.0034 -0.3115,0.0456 -0.5765,0.0439 -0.3433,-0.0014 -3.2083,0.082 -3.5249,0.1177 -0.1777,0.0198 -0.4303,0.0062 -0.6151,0.0051 -0.2659,-0.0012 -0.358,0.0374 -0.5777,0.0436 -0.9357,0.0267 -1.8476,0.1231 -2.6918,0.1231 -0.4666,0 -0.9434,-0.2033 -1.2484,-0.4488 -0.2968,-0.2392 -0.0969,-0.1377 -0.7378,-0.2965 0.0632,0.0944 0.1111,0.129 0.1936,0.2197 l 0.4107,0.4167 c 0.006,0.0062 0.015,0.0153 0.0204,0.0218 0.2914,0.3048 0.3938,0.3855 0.758,0.5247 0.233,0.0887 0.4113,0.1392 0.6588,0.2106 0.7957,0.2294 0.9079,0.1554 1.4587,0.2381 0.354,0.0536 0.4637,-0.0201 0.8028,-0.0181 0.331,9e-4 0.5615,-0.0264 0.8285,-0.0411 0.2577,-0.0133 0.5655,-3e-4 0.8283,9e-4 0.3345,0.0014 0.4924,-0.044 0.8272,-0.042 0.5791,0.0031 1.1593,0 1.7384,3e-4 l 2.5246,-0.0417 c 0.4532,3e-4 0.6108,-0.0363 0.828,-0.0411 z m -3.4353,25.6255 c 0.0484,-0.4368 0.0663,-0.2843 -0.0411,-0.6619 -0.6112,-0.1429 -1.27,-0.0414 -1.9868,-0.0414 h -3.1867 c -0.4043,0 -0.6634,0.044 -1.0344,0.0414 -0.5715,-0.003 -1.6251,-0.0598 -2.1416,0.0113 -1.2367,0.1693 -2.6144,0.005 -3.7822,-0.3373 -0.7081,-0.208 -0.8898,-0.3404 -1.3508,-0.8022 l -1.2931,-0.8589 c 0.0295,0.3524 0.8005,1.2765 1.1463,1.5854 0.6809,0.6095 1.7807,1.1257 2.7077,1.2246 0.7194,0.0771 1.1755,-0.0391 1.6083,-0.0374 0.1931,5e-4 0.3867,5e-4 0.5803,5e-4 0.7455,0 1.3824,-0.0411 2.1521,-0.0411 0.7137,0 1.5352,0.0377 2.2351,6e-4 0.4861,-0.0263 0.4935,-0.0419 1.0763,-0.0419 z M 107.5623,96.9318 c 0.1171,0.2211 0.3994,1.1478 0.4964,1.4488 0.246,0 3.2734,-0.4861 3.7068,-0.5561 0.6529,-0.1055 1.0097,-0.0119 1.0959,-0.6424 l 0.0811,-0.7883 -0.3722,-1.3252 c -0.8232,0.0692 -4.2857,1.3788 -5.008,1.8632 z m -3.2697,-4.5541 c 0.0796,0.1089 0.7265,0.629 0.8691,0.7449 0.1817,-0.0481 0.6993,-0.4889 0.8586,-0.6312 l 2.6286,-2.422 0.693,-0.8379 c -0.4252,-0.6349 -1.4612,-1.2115 -2.1107,-1.6143 -0.1556,0.1037 -1.4346,2.262 -1.4918,2.3579 l -0.3626,0.5893 c -0.1618,0.2565 -1.0448,1.6452 -1.0842,1.8133 z m -3.8903,-2.1526 c 0.2441,0.1292 1.2183,0.5207 1.5727,0.6624 0.3875,-0.7327 1.1035,-1.8261 1.5321,-2.6489 0.4878,-0.9392 0.6477,-1.23 1.0755,-2.2363 -0.091,-0.0247 -0.7419,-0.5009 -0.9811,-0.5919 l -1.2121,-0.4016 c -0.0131,0.1465 -1.5698,4.1108 -1.745,4.5479 -0.0808,0.2035 -0.1871,0.4334 -0.2421,0.6684 z m 51.9735,25.8168 c -0.0774,0.0473 -0.1689,0.1071 -0.2806,0.182 -0.123,0.0822 -0.2126,0.1394 -0.3541,0.2248 l -1.6735,0.6443 c -0.3487,0.0649 -2.7216,-0.6625 -2.7318,-0.6625 -0.371,0 -0.8076,0.7642 -0.993,1.0766 0.1656,0.2478 0.7087,0.4978 1.0222,0.6336 0.256,0.0844 1.2294,0.3186 1.5024,0.3186 1.0511,0 2.1818,-0.9031 4.0977,-0.9513 0.3603,-0.01 0.6928,-0.0267 0.9992,-0.2427 0.9536,-0.6709 1.2371,-1.1029 1.8148,-2.0353 -0.7563,-0.3784 -0.6772,-0.4714 -1.3964,0.2597 -0.0552,0.0561 -0.1227,0.11 -0.1981,0.1587 -0.2667,0.2444 -0.6222,0.3935 -1.0125,0.3935 z m -3.5501,2.8729 c -1.1571,0 -1.9431,-0.4839 -2.897,-0.9941 l -0.4139,0.5797 c 1.8587,1.2452 3.0039,1.4553 5.15,0.8461 1.1806,-0.3353 2.4494,-0.7693 3.706,-0.7642 0.3167,10e-4 0.8535,0.0264 1.088,-0.0295 0.6463,-0.1539 1.694,-0.8529 2.0687,-1.2838 l 0.9831,-1.2937 c -0.1338,-0.0641 -0.9854,-0.2739 -1.2005,-0.3311 -0.2795,0.1874 -0.6764,0.7974 -1.2569,0.9366 -1.2991,0.3103 -1.3329,0.9875 -2.3573,1.3263 -0.4691,0.155 -0.9164,0.0289 -1.3212,0.1278 -0.2064,0.0502 -0.3631,0.1038 -0.5857,0.1593 -0.7971,0.1993 -2.3697,0.7206 -2.9633,0.7206 z M 106.6932,94.9445 c 0.0159,0.1899 0.5409,1.165 0.6622,1.4077 0.2534,-0.021 2.8446,-1.0117 3.2647,-1.1642 l 1.3039,-0.476 c 0.3362,-0.1168 0.3257,-0.1202 0.6046,-0.3055 0,-0.7056 -0.1992,-1.6994 -0.6321,-2.1411 l -0.485,-0.4254 c -0.078,0 -0.4944,0.3019 -0.5882,0.3645 l -2.037,1.3567 c -0.3104,0.2111 -1.9136,1.3354 -2.0931,1.3833 z m 48.2579,24.1358 c -1.8995,0 -1.1339,-0.159 -3.2281,0.4139 -0.3093,0.0848 -0.4802,0.14 -0.7452,0.2897 0.0881,0.3291 1.4471,0.4397 1.6971,0.4555 1.1137,0 1.8683,-0.3455 2.7552,-0.5972 0.819,-0.233 1.8964,-0.4811 2.9146,-0.4788 1.1821,0.002 1.4434,0.003 2.5608,-0.8337 0.3051,-0.2287 1.0457,-0.9243 1.2651,-1.2603 l 0.313,-0.5558 -1.2827,-0.3314 c -0.0964,0.3606 -0.8252,0.8671 -1.277,0.9998 -0.8314,0.2438 -1.2742,-0.1704 -2.2422,0.5726 -0.3685,0.2826 -0.4876,0.4666 -0.9791,0.7594 -0.4547,0.271 -1.0474,0.5663 -1.7515,0.5663 z m -29.592,-23.4734 c 0,-0.1786 -0.005,-0.1488 -0.0414,-0.3313 -0.008,0.0019 -1.8944,0.1445 -2.3573,0.2092 -0.7597,0.1065 -1.5032,0.2233 -2.2762,0.3316 l -1.7334,0.2112 c -0.5408,0.0584 -1.5236,-0.0045 -1.6894,0.2562 -0.0224,0.0358 -0.3294,0.9664 -0.3294,0.9959 -0.001,0.1689 0.2721,0.1088 0.4802,0.1074 1.5069,-0.0085 3.0532,-0.0391 4.5527,0.0417 l 2.6036,-0.004 c 0.4221,-0.0425 0.43,-0.2886 0.5567,-0.7271 0.089,-0.3093 0.2339,-0.7328 0.2339,-1.0908 z m -25.412,-5.5474 c 0.0479,-0.2066 0.1723,-0.4155 0.2542,-0.6151 l 0.508,-1.2305 c 0.0845,-0.222 0.1559,-0.4042 0.2432,-0.6265 0.1689,-0.432 0.3005,-0.8455 0.4482,-1.2897 l 0.4084,-1.3717 c -0.1664,-0.0448 -0.3208,-0.1928 -0.5133,-0.2727 -0.2132,-0.0884 -0.3586,-0.1488 -0.5678,-0.2194 -0.1882,-0.0485 -1.4414,-0.3297 -1.7031,-0.2228 -0.1621,0.066 -0.1238,0.2398 -0.1836,0.644 l -0.7093,4.8047 c -0.0039,0.2016 0.1457,0.1562 0.3362,0.1809 0.1996,0.0261 0.3121,0.0448 0.5035,0.0768 0.1913,0.0326 0.2724,0.0425 0.4714,0.0663 0.1485,0.0176 0.341,0.0723 0.504,0.0757 z m 25.6186,-4.5541 3.8078,-0.0825 c 0.383,0 0.8249,0.0204 1.2005,0 0.4952,-0.0266 0.5408,-0.0414 1.1168,-0.0414 0.3949,0 0.8107,0.0133 1.2019,9e-4 0.2177,-0.0063 0.2809,-0.0465 0.5363,-0.0431 0.2129,0.0028 0.434,0.0626 0.4468,-0.1128 l -0.1979,-1.0046 c -0.6485,0 -1.2968,0 -1.9454,0 l -2.8559,0.0413 c -0.3787,-2e-4 -0.5944,0.0437 -0.951,0.042 l -1.4908,-3e-4 c -0.1873,0.0099 -0.2265,0.0425 -0.4541,0.0434 -1.5281,0.0017 -2.3536,-0.0063 -3.367,-0.5678 -0.3946,-0.2188 -0.7852,-0.5485 -1.0723,-0.8731 -0.6242,-0.7064 -0.0536,-0.409 -1.1492,-0.8382 0.2996,0.6242 0.0601,0.5276 0.7966,1.3567 1.0706,1.205 2.5744,2.0795 4.3769,2.0795 z m 28.8474,35.0651 c 0.1743,0.0408 0.2304,0.0876 0.3985,0.1395 0.4765,0.1494 1.2929,0.233 1.7949,0.233 0.0681,0 0.1344,-0.002 0.1993,-0.004 0.2704,-0.3938 0.7237,-0.6523 1.2373,-0.6523 h 1.3057 c 1.0091,-0.2789 1.9445,-0.4396 3.1348,-0.5023 0.3733,-0.0193 0.4884,0.0128 0.7928,-0.0768 0.4612,-0.1349 0.9797,-0.5434 1.3768,-0.8164 0.3717,-0.256 1.4539,-1.7283 1.804,-2.1702 -0.356,-0.0298 -1.0083,-0.288 -1.2181,-0.3183 -0.4135,-0.059 -0.3492,0.6332 -1.5128,1.0641 -0.2117,0.078 -0.582,0.1647 -0.8685,0.1664 -0.3583,0.002 -0.5086,-0.0607 -0.7648,0.2701 -0.4666,0.603 -1.8791,1.4925 -2.5084,1.6308 -0.9567,0.2098 -1.7827,-0.0652 -3.6958,0.4431 -0.2787,0.0742 -0.5366,0.1465 -0.8087,0.2264 -0.6293,0.1852 -0.6608,0.0925 -0.667,0.3674 z m -59.1015,1.7802 c 0,0.3027 0.1763,0.6511 0.2576,0.9433 0.08,0.2872 0.1786,0.6668 0.2858,0.9556 0.517,1.3844 1.7124,1.4723 3.0098,1.9579 l 1.8686,0.6143 0.9519,-1.4491 c 0.036,-0.1199 -0.5046,-0.5664 -0.6523,-0.7141 -0.6792,-0.6794 -0.851,-0.8373 -1.4167,-1.6457 -0.0542,-0.0769 -0.0862,-0.1438 -0.154,-0.2183 l -0.4674,-0.2367 c -0.2361,-0.0374 -0.9536,0.4442 -2.5299,-0.2846 -0.1236,-0.0567 -0.2106,-0.1072 -0.3237,-0.1729 -0.2724,-0.159 -0.3799,-0.288 -0.6495,-0.0664 -0.0748,0.0621 -0.1802,0.2056 -0.1802,0.3167 z m 15.313,9.108 c 0.6857,0.1596 1.0329,0.3092 1.8862,0.4323 l 2.1288,0.2299 c 0.1202,-0.5174 0.2472,-0.7818 -0.1817,-1.1016 -0.5165,-0.3844 -0.1712,0.019 -0.8946,-0.6786 0.3197,-0.1534 0.9309,-0.2188 1.0882,-0.3189 0.1573,-0.0995 0.203,-0.2427 0.2477,-0.4561 l 0.237,-0.5083 c 0.7161,0 0.8036,0.2186 0.8671,0.7056 0.091,0.6959 0.0825,0.5887 0.4573,1.1163 0.8441,-0.1973 0.9643,-1.6487 1.1582,-2.4432 l 0.2075,-0.9935 c -0.0876,-0.0414 -2.3661,-0.5378 -2.4832,-0.5378 -0.3342,0 -0.6392,0.5139 -0.9204,0.8184 -0.7486,0.8098 -1.6594,1.4499 -2.5622,2.073 -0.5618,0.388 -0.72,0.6987 -1.0417,1.2767 -0.0587,0.1051 -0.1678,0.2885 -0.1942,0.3858 z m -1.1585,-28.2759 c 0.0802,0.6832 0.1409,0.7464 -0.025,1.4658 l -0.182,0.6874 c 0.2512,0.0207 0.5046,0.1312 0.7898,0.1624 l 1.758,0.2279 c 0.4598,0.0638 2.3202,0.1746 2.7924,0.1877 0.2084,0.006 0.2288,0.0414 0.4524,0.0445 0.599,0.007 1.5687,0.119 1.9307,-0.0598 l 0.347,-0.1905 c -0.0527,-0.1979 -0.2653,-0.2863 -0.404,-0.4238 l -1.2614,-1.3464 c -0.3087,-0.3121 -0.6276,-0.4519 -1,-0.6962 -0.2929,-0.1919 -0.7991,-0.5312 -1.1421,-0.5976 -0.1485,-0.028 -1.7564,0.2183 -2.0203,0.2563 -0.3282,0.0473 -0.6661,0.0884 -1.0185,0.1406 z m 13.4509,2.9809 0.0893,-1.0701 c 0.0349,-0.3291 0.0491,-0.746 0.1001,-1.1004 0.0255,-0.1754 0.0332,-0.3861 0.0513,-0.5286 0.0816,-0.6441 0.1134,-0.8652 0.2455,-1.5344 0.1576,-0.7971 0.8334,-2.7284 1.1279,-3.6323 -0.1726,-0.0916 -0.6775,-0.3663 -0.8881,-0.3881 -0.3008,-0.0306 -0.4649,0.4465 -0.5879,0.6914 -0.9247,1.851 -1.8658,3.8882 -3.1499,5.4609 -0.1071,0.131 -0.2066,0.2344 -0.3055,0.3566 -0.4488,0.5576 -1.143,1.1543 -1.7391,1.5727 -0.6194,0.434 0.2168,0.2545 1.2489,0.2551 0.5247,0 0.7101,-0.0428 1.1999,-0.0414 0.4417,9e-4 0.883,-8e-4 1.325,3e-4 0.4504,6e-4 0.799,-0.0417 1.2826,-0.0417 z m 7.5325,5.0919 -0.1238,-1.4488 c -3.786,0 -7.4634,0.0944 -11.2162,0.1244 -0.5385,0.004 -1.7246,-0.4955 -2.2821,-0.6981 -0.2288,-0.0828 -0.4156,-0.2568 -0.5616,-0.4323 l -0.4677,-0.5256 c -0.2744,-0.3597 -0.4694,-0.4578 -0.877,-1.1097 -0.2421,-0.3881 -0.1403,-0.3646 -0.4887,-0.5052 0,0.6996 0.4598,1.289 0.8456,1.804 0.6539,0.8722 1.777,2.0821 2.7841,2.5143 0.5057,0.2169 1.575,0.4187 2.1569,0.4921 0.6897,0.0868 1.2152,0.0732 1.9126,0.0757 0.2746,10e-4 0.3568,-0.0431 0.6185,-0.0436 0.4413,-9e-4 0.8841,0.001 1.3257,0.001 0.4797,0 0.8453,-0.0431 1.2833,-0.0417 0.9204,0.004 1.6962,-0.0422 2.607,-0.0414 0.3858,6e-4 1.4873,-0.0391 1.9006,-0.0859 0.1752,-0.0195 0.4088,-0.0759 0.5828,-0.0796 z m -4.1388,18.2985 c -0.4933,-0.1148 -1.6135,-0.4139 -2.0693,-0.4139 -0.5536,0 -0.9938,0.178 -1.2932,0.4451 l -0.6519,1.0868 c 0.136,0.0654 0.3767,0.1204 0.538,0.1655 1.5545,0.4343 3.4985,1.0174 5.0442,1.4956 0.3563,0.1102 0.7566,0.2248 1.1223,0.3259 l 2.2765,0.6628 c 0.0459,-0.197 0.3517,-0.7274 0.3211,-1.1072 -0.0399,-0.4898 -0.1973,-0.7058 -0.3373,-1.1126 l -0.7285,-2.1685 -4.1808,-0.0417 c 0,0.2891 -0.0411,0.396 -0.0411,0.6622 z m 22.6136,-15.5526 -0.9266,-0.2622 c -0.3898,-0.0536 -1.0134,0.0785 -1.3521,0.2619 -0.7892,0.4266 -1.4675,1.3471 -2.0537,2.0444 -0.0601,0.072 -0.1026,0.0998 -0.163,0.1681 -0.8581,0.9657 -0.6934,0.8538 -2.2592,0.665 l -1.1245,-0.1582 0.0825,1.9043 c 0.191,0.0448 0.6482,0.2458 0.9377,0.3045 0.9549,0.1941 1.7932,0.2789 2.5934,-0.3739 0.6548,-0.5335 1.3875,-1.5231 1.9083,-2.1901 0.0635,-0.081 0.1389,-0.1854 0.2009,-0.2542 0.385,-0.4264 0.8442,-0.307 1.3009,-0.1239 0.2222,0.0893 0.3977,0.1618 0.6205,0.2491 0.4407,0.1732 1.0284,0.4014 1.5023,0.4014 0.341,0 0.8569,-0.25 1.3646,-0.5958 h -1.1319 c -0.8282,0 -1.5001,-0.6718 -1.5001,-1.5001 z m -31.098,-31.9734 c 0.0822,0.6543 0.1355,0.8195 -0.0232,1.5083 -0.1228,0.5304 -0.2875,0.821 -0.0695,1.0681 0.1174,0.1324 0.123,0.0505 0.1361,0.2781 0.0164,0.2982 0.0399,0.5017 0.0397,0.8297 -6e-4,0.2724 -0.0131,0.5511 0.0235,0.8045 0.0176,0.1219 0.006,0.2783 0.0334,0.3801 l 0.2328,0.2234 c 0.0771,0.0306 0.8053,-0.0632 0.8112,-0.0624 l 0.43,0.3104 c 0,0.8864 -0.0722,1.1472 -0.2066,1.9877 1.3209,0.2639 1.6699,-0.7271 1.8712,-0.8609 l 1.7294,-0.7124 h 0.3311 c 0.8058,0 0.7871,0.5284 0.24,-1.6894 -0.1091,-0.4422 -0.2032,-0.6168 -0.585,-0.8223 -1.0298,-0.5534 -1.6487,-1.0231 -2.3335,-1.971 -0.2118,-0.2928 -0.3311,-0.6253 -0.5094,-0.9399 -0.2166,-0.3804 -0.3521,-0.3495 -1.0752,-0.3736 -0.5048,-0.0159 -0.8472,0.0416 -1.076,0.0416 z m -0.0411,13.6202 c 1.2804,0 2.5299,-0.2304 3.7732,-0.4068 1.1441,-0.1621 2.5651,-0.3123 3.7593,-0.4623 0.1508,-0.3149 0.0201,-1.2413 -0.0411,-1.6155 -0.0992,-0.6012 -0.5774,-2.2705 -1.1069,-2.618 l -1.3354,-0.5276 c -0.3124,-0.0592 -1.0032,0.0961 -1.3071,0.2237 -0.5618,0.237 -0.7636,0.4592 -1.1029,0.8433 -0.0981,0.1106 -0.1903,0.2614 -0.2725,0.3903 -0.1766,0.2753 -0.341,0.5415 -0.5068,0.8178 -0.076,0.127 -0.1545,0.2424 -0.2381,0.3824 -0.3586,0.5953 -0.9091,1.4579 -1.2084,2.0619 -0.074,0.1497 -0.1398,0.2798 -0.2205,0.4414 -0.0661,0.131 -0.1817,0.3342 -0.1928,0.4694 z m -3.2698,6.8309 c 0.0499,0.1871 0.2325,0.2546 0.3992,0.3456 0.8674,0.4688 1.1077,0.8235 1.6599,1.4034 0.1264,0.1335 0.2418,0.2772 0.3589,0.4272 l 0.7687,0.7637 c 0.4247,-0.0998 1.4834,-1.298 1.8312,-1.6884 0.0686,-0.0768 0.114,-0.144 0.184,-0.2296 l 0.4929,-0.6661 c 0.0726,-0.1055 0.1044,-0.1361 0.1744,-0.2398 0.5451,-0.8025 1.5945,-2.715 1.9805,-3.566 l 0.4692,-1.1452 -5.1735,-0.0417 c -0.0128,0.1528 -0.1962,0.5193 -0.2665,0.6863 -0.2889,0.6911 -0.7211,1.7096 -1.0908,2.3031 -0.3707,0.5959 -1.0335,1.6475 -1.7881,1.6475 z m -12.7474,15.2346 c 1.1875,0.2378 1.5384,0.2933 2.791,-0.2302 0.6973,-0.292 1.8984,-0.9352 2.5566,-1.3757 0.3926,-0.2633 0.7668,-0.5578 1.1188,-0.8682 0.2611,-0.2293 0.3005,-0.3422 0.4553,-0.4966 0.3719,-0.3714 1.0383,-1.3533 1.2041,-1.776 l 0.8966,-3.0775 c 0.0284,-0.1996 -0.0348,-1.3062 -0.0839,-1.4927 -0.0448,-0.1676 -0.0122,-0.1112 -0.1256,-0.0916 -0.3061,0.0536 -2.2688,0.7242 -2.5996,0.8439 -1.4726,0.5334 -3.2173,1.4099 -3.7775,2.9695 -0.1618,0.4527 -0.3064,0.9097 -0.5176,1.3456 l -0.3928,0.849 c -0.2112,0.5239 -1.516,2.9747 -1.5254,3.4005 z m 0.9105,0.6624 c -0.4583,0 -0.9677,-0.1811 -1.2002,-0.2066 -0.1343,-0.0153 -0.3007,0.4201 -0.4161,0.6188 l -1.3771,2.5132 c -0.3594,0.8095 -0.2177,0.7058 0.4924,1.6472 l 0.7943,0.9853 c 0.2143,0.2432 0.6477,0.6786 0.9031,0.8768 0.1599,0.1241 0.3121,0.2721 0.4626,0.4062 l 0.5066,0.4045 c 0.1573,-0.2347 0.299,-0.345 0.487,-0.5482 0.6457,-0.6979 1.5148,-1.7635 2.2127,-2.5473 l 1.0959,-1.2645 c 0.0643,-0.0762 0.0572,-0.085 0.1264,-0.1627 l 0.9791,-1.1313 c 0.1562,-0.2007 0.3214,-0.358 0.4739,-0.5616 0.0751,-0.1003 0.1576,-0.2055 0.2194,-0.3191 0.1851,-0.3399 1.1574,-3.4155 1.152,-3.6496 l -0.2069,-0.6625 c -0.148,0.0394 -0.4187,0.3983 -0.6517,0.6318 -1.0329,1.0387 -2.6198,1.9106 -3.9662,2.4492 -0.6208,0.2489 -1.3907,0.5204 -2.0872,0.5204 z m 8.4847,-10.1837 c 0.1908,2.196 0.0805,2.9151 -0.8827,5.0371 l -0.4419,1.09 0.2069,0.8277 c 0.3999,0 3.7488,-0.2804 4.269,-0.3668 1.4734,-0.2452 2.3709,-0.5111 3.7865,-0.9318 0.8475,-0.2511 2.9199,-1.008 3.6088,-1.5239 l 0.2551,-0.2406 c -0.1435,-0.0698 -2.2119,-0.2316 -2.9007,-0.3691 -0.4864,-0.0972 -0.8425,-0.1766 -1.262,-0.3524 -0.4864,-0.2035 -0.858,-0.475 -1.2277,-0.8005 -0.0794,-0.0705 -0.1301,-0.1321 -0.2061,-0.208 -0.0972,-0.0961 -0.1275,-0.1041 -0.2267,-0.1871 -0.1256,-0.1052 -0.8564,-0.9116 -0.989,-1.0814 -0.4218,-0.5397 -0.6401,-0.9026 -0.9414,-1.5004 l -0.2758,-0.5525 c -0.2673,0.0627 -2.5645,1.0205 -2.7723,1.1597 z m 8.5257,-26.6202 c 0.6078,0 1.8678,0.021 2.3647,-0.0349 1.1256,-0.1264 1.2546,0.3297 1.1591,-0.5088 l -0.0584,-1.0179 c -0.1066,-0.7931 -0.1199,-1.7782 -0.2259,-2.5889 -0.0255,-0.1964 -0.04,-0.4827 -0.051,-0.6528 -0.0151,-0.2208 -0.0247,-0.4181 -0.0497,-0.6551 -0.0989,-0.9499 -0.314,-2.9344 -0.3673,-3.8965 -0.0607,-1.0967 -0.2951,-2.7014 -0.3728,-3.8497 -0.0867,-1.2952 -0.3963,-3.7565 -0.5774,-5.0939 h -0.2903 c -0.1766,0.2648 -0.2126,0.6735 -0.2721,1.0117 -0.3104,1.7617 -0.7072,3.7434 -1.0556,5.4851 -0.1967,0.9836 -0.6585,3.4738 -0.6602,4.5561 -0.001,0.8694 0.002,1.7396 0.002,2.609 0,0.8739 -0.042,1.6619 -0.0417,2.5668 9e-4,1.3342 -0.316,2.0698 0.4969,2.0698 z m 6.1251,14.2002 c 0.6038,0.32 4.2934,1.6293 4.9414,1.847 0.447,0.1508 0.8413,0.2577 1.2929,0.4042 0.434,0.1409 0.8637,0.2702 1.315,0.3819 0.3362,0.0689 2.8539,0.4722 3.0878,0.4722 1.7767,0 3.399,-0.4768 5.1343,-0.3333 0.226,0.0181 0.4091,-0.0071 0.6361,0.0255 0.2237,0.0323 0.4241,0.0431 0.6407,0.0626 0.9065,0.0822 2.4576,0.5261 3.3151,0.8657 l 2.0098,0.7628 c 0.3628,0.1457 0.7168,0.2872 1.0723,0.4249 0.275,-0.3387 0.6948,-0.5553 1.165,-0.5553 h 3.1349 c 0.5706,0 1.0669,0.3192 1.3204,0.7881 l 0.5363,0.8223 c 0.1471,-0.1386 0.267,-0.2883 0.3359,-0.4073 l 0.3577,-1.6283 c 0.0573,-0.5238 -0.949,-0.5629 -1.383,-0.6448 -1.8539,-0.3507 -3.1913,-0.5389 -5.078,-1.0891 -1.9355,-0.5641 -2.6005,-1.0038 -4.7781,-1.3482 -0.6511,-0.1031 -1.2744,-0.134 -1.9213,-0.1471 l -1.715,0.1066 c -1.1437,0.1585 -3.9841,0.5859 -4.8245,0.6386 -1.1109,0.0698 -2.5855,-0.0912 -3.5978,-0.2931 -0.7937,-0.1584 -1.5321,-0.3926 -2.3128,-0.5847 -0.735,-0.1809 -1.5088,-0.4125 -2.2521,-0.6038 -0.3858,-0.0992 -0.748,-0.1999 -1.1353,-0.3133 -0.504,-0.1471 -0.6715,-0.1754 -1.1732,-0.2749 -0.0862,0.1794 -0.0491,0.4643 -0.1245,0.6208 z m 9.3535,-0.1242 c -1.5174,0 -5.4912,-0.5224 -7.0928,-0.8943 -0.7954,-0.1848 -1.3479,-0.2996 -2.1362,-0.4303 0.036,0.4371 0.5763,0.515 0.8867,0.6032 1.184,0.3356 2.4817,0.6131 3.6748,0.9196 0.8144,0.2094 1.6166,0.4053 2.4494,0.6128 l 2.6742,0.3898 c 0.7033,0.051 5.588,-0.7189 7.1595,-0.7866 2.1773,-0.0939 3.8962,0.4549 5.9437,0.9686 1.6024,0.4028 3.0832,0.8594 4.784,1.2585 0.6148,0.1446 3.0575,0.5052 3.5923,0.5052 0.3796,0 0.6101,-0.3116 0.7288,-0.5962 0.0811,-0.2503 0.2648,-1 0.2648,-1.2668 0,-0.2361 -0.091,-0.6579 -0.2038,-1.0454 h -7.4685 c -0.8282,0 -1.5001,-0.6718 -1.5001,-1.5001 v -0.1366 c -1.1712,-0.1942 -3.1569,-0.5057 -3.7817,-0.5057 -1.0595,0 -1.6089,0.1454 -2.5579,0.381 -0.7838,0.195 -1.548,0.4283 -2.3508,0.6293 -1.7308,0.4334 -3.1697,0.894 -5.0664,0.894 z m -9.5187,-2.9806 0.1652,1.1591 c 0.1321,0.0028 0.372,0.0788 0.5486,0.1139 l 3.9509,0.7257 c 1.3708,0.2305 3.545,0.5264 4.9785,0.5264 1.4133,0 3.6881,-0.5893 5.0408,-0.9604 0.7725,-0.2123 1.5653,-0.3881 2.3842,-0.5955 l 2.6734,-0.3484 c 0.6514,-0.042 2.3819,0.2613 3.5339,0.4657 V 90.938 c -1.3918,-0.1973 -2.7992,-0.4232 -4.1955,-0.4232 -2.3222,0 -4.4294,1.1222 -6.497,2.0296 -0.9397,0.4121 -2.31,0.8115 -3.3948,0.8685 -0.2497,0.0131 -0.4697,0.0204 -0.6698,0.0369 l -4.0377,-0.2554 c -1.0913,-0.1429 -1.9749,-0.2013 -3.1799,-0.3793 z M 75.1141,119.577 c 0,0.2333 0.3116,2.3729 0.383,2.6396 l 0.1137,0.3413 c 0.6386,-0.0533 2.8737,-0.9972 3.2164,-1.4199 l 0.55,-1.0227 c 0.0258,-0.1018 -0.0012,-0.9148 -0.2583,-1.1495 l -0.6111,-0.5896 c 0,-0.7789 0.1389,-0.8084 0.8254,-0.9547 0.2625,-0.0555 0.3705,-0.1207 0.5321,-0.2959 0.0796,-0.1236 0.3064,-0.6588 0.2568,-0.8195 l -0.703,-1.0344 c -0.0408,-0.1301 0.8677,-1.5554 1.2716,-1.9573 l 1.1639,-1.2779 c 0.0525,-0.0643 0.084,-0.0898 0.1358,-0.1536 0.0967,-0.1196 0.1625,-0.1936 0.2605,-0.3198 0.5542,-0.7089 0.3484,-0.5 1.0174,-1.1769 0.3399,0 0.5397,0.7719 0.6848,1.1361 0.1826,0.457 0.3643,0.872 0.5205,1.3422 0.2795,0.8422 0.517,1.844 0.8481,2.8369 0.163,0.489 1.0074,2.8679 1.2206,3.3738 0.1063,0.254 0.2098,0.3308 0.4144,0.4961 l 1.1123,0.7512 h 0.207 c 0,-1.4777 0.1145,-2.6629 0.375,-3.9302 0.1156,-0.563 0.284,-1.0939 0.4572,-1.613 0.1358,-0.4059 0.4315,-1.0406 0.6163,-1.4539 -0.6781,-0.4535 -0.3158,-0.1734 -0.7968,-0.6942 -0.3343,-0.3608 -0.7903,-0.8161 -1.0951,-1.1806 -0.3367,-0.4025 -0.7319,-0.8166 -1.0474,-1.2294 -0.3671,-0.4807 -0.9513,-1.2543 -1.2546,-1.7677 -0.1032,-0.1751 -0.1871,-0.2814 -0.2897,-0.4546 -0.1188,-0.2007 -0.4453,-0.7716 -0.6182,-0.8723 -0.7971,-0.4626 -2.1476,-0.208 -2.6861,0.5211 l -1.1659,2.1866 c -1.0505,1.9709 -2.1427,3.4379 -3.4572,5.1945 -0.9175,1.2271 -0.7863,1.3683 -1.3118,2.7442 -0.1931,0.5029 -0.3782,0.889 -0.6801,1.3079 -0.1017,0.14 -0.2075,0.2582 -0.2075,0.4961 z m 4.222,5.7549 c 0,0.8546 0.4382,1.2084 0.985,1.5389 l 4.4493,2.5055 c 0.7384,0.4125 1.6925,0.9667 2.3796,1.4279 l 1.1589,0.7869 c 1.023,0.6409 2.0715,0.2916 3.0441,0.7636 1.3306,0.6463 0.5284,0.4516 2.5534,0.1823 0.614,-0.0808 1.0188,-0.1698 1.6121,-0.3337 -0.0196,-0.2316 -0.4419,-0.947 -0.5652,-1.1732 -0.2662,-0.4873 -0.8499,-1.332 -1.3207,-1.7008 -0.1128,-0.0876 -0.1267,-0.1242 -0.2483,-0.2072 l -1.2594,-0.4785 c -0.353,0 -0.673,0.1202 -0.9482,0.2106 -0.3212,0.1049 -0.326,0.2512 -0.5006,0.6585 l -0.8649,-0.1284 c -0.8291,-0.1378 -0.4411,-0.8773 -0.8062,-1.1806 l -0.6882,-0.347 c -0.2475,-0.0587 -0.6381,0.0354 -0.8586,0.301 l -0.3827,0.4445 c -0.3637,0 -1.8935,-1.0335 -2.2533,-1.3068 -0.0079,-0.006 -1.6509,-1.3206 -1.7084,-1.3957 l -0.1772,-0.2781 c 0.576,-0.2767 2.761,-0.2628 3.5618,-0.3297 0.1369,-0.0108 0.3121,-0.002 0.4527,-0.002 0.6463,9e-4 0.9555,-0.0433 1.6982,-0.0399 0.3039,0.001 0.487,-0.0431 0.8266,-0.0426 0.5833,10e-4 1.0992,-0.0224 1.6982,-0.0402 0.2996,-0.008 0.2931,-0.0428 0.8263,-0.0425 1.9128,0 1.7705,-0.003 3.3112,-0.9522 0,-0.362 -0.4556,-0.3779 -0.7716,-0.4703 -1.3405,-0.3911 -1.6112,-0.5247 -2.8446,-0.9637 -0.5165,-0.1834 -2.3698,-0.9505 -2.5991,-1.209 l -0.4898,-0.7934 -1.2359,0.4609 c -1.0704,0.4396 -2.0546,0.7993 -3.1334,1.2126 -0.2262,0.0871 -0.4054,0.1571 -0.6262,0.2433 -0.4363,0.1706 -0.8311,0.3021 -1.2662,0.4722 -0.4984,0.1947 -2.1459,0.7753 -2.4806,0.9958 -0.3325,0.2194 -0.5281,0.7815 -0.5281,1.211 z M 148.9243,87.067 c -0.1289,-0.0162 -0.2687,-0.0354 -0.4419,-0.0584 -0.82,-0.1083 -2.7839,-0.3161 -3.547,-0.3441 -1.2977,-0.0468 -3.0373,0.3158 -4.1368,0.9544 -1.1503,0.6673 -1.9642,1.3255 -3.1193,2.0134 -0.5797,0.345 -1.0134,0.6427 -1.6415,0.9247 -0.1375,0.0615 -0.226,0.1055 -0.3782,0.1602 -0.2894,0.1043 -0.4413,0.1717 -0.7988,0.2355 -0.5814,0.0737 -1.8904,0.1415 -2.5483,0.1415 -1.55,0 -5.4125,-0.4845 -7.45,-0.6622 0.0121,0.1466 0.3472,0.9655 0.4274,1.1452 0.2472,0.553 0.231,0.5905 0.8927,0.722 0.8634,0.1718 2.076,0.1854 2.8839,0.3033 0.3235,0.0473 4.8663,0.4238 5.1378,0.3852 0.2225,-0.0312 0.5278,-0.0108 0.7807,-0.0476 1.6495,-0.2384 2.1676,-0.3665 3.6587,-1.1013 0.352,-0.1732 0.7511,-0.322 1.1298,-0.4844 0.3388,-0.1154 5.0406,-1.2949 5.1619,-1.2949 0.646,0 1.7482,0.1395 2.4177,0.2311 0.4901,0.0668 1.0242,0.1425 1.5712,0.2188 z M 89.807,103.2245 c 0.6409,0.1491 0.8504,0.3733 1.002,1.0258 0.2282,0.9808 0.0505,0.6633 0.6951,1.3754 l 0.2724,-0.8033 c 0.4294,-1.5041 -0.0513,-0.3779 0.9689,-2.3848 l 0.3727,0.0827 -0.1378,0.277 c -0.2415,0.4371 0.1225,0.6281 0.4448,0.572 0.8133,-0.1417 2.4109,-0.0204 3.2936,-0.0204 0.5655,-6e-4 1.1313,0 1.6971,0 l 6.7873,0.0411 1.0349,-0.0828 c 0.0442,-0.2219 0.0411,-0.1542 0.0411,-0.3727 -0.3087,0 -0.4374,-0.0434 -0.7444,-0.042 -0.722,0.004 -1.8003,0.0145 -2.4446,-0.0385 -0.9896,-0.0822 -2.3578,0.1139 -3.2848,-0.0264 -0.3192,-0.0479 -2.7269,-0.0176 -3.2522,-0.0173 -0.5091,0 -1.095,-0.0997 -1.5967,-0.0238 -0.7305,0.1106 -0.8481,0.007 -1.383,-0.2245 0.3784,-0.0881 -0.0128,-0.0351 0.492,-0.0873 0.3884,-0.0394 0.5755,-0.5417 0.7614,-0.9777 0.279,-0.6531 0.3881,-0.9839 0.9335,-1.3838 0.2265,-0.1661 0.462,-0.3016 0.6789,-0.4805 0.2381,-0.1967 0.4014,-0.3172 0.6208,-0.5377 l 0.8175,-1.5007 c 0,-0.4983 -0.2795,-0.9839 -0.5023,-1.2776 -1.0653,-1.4071 -0.942,-0.9 -0.2254,-1.9343 0.3677,-0.5315 1.0216,-1.3485 1.4434,-1.9097 0.6154,-0.8178 0.6716,-0.9831 0.9814,-1.9163 l -3.7667,-0.4141 c -1.3567,-0.0743 -3.4512,0.1233 -4.1522,1.3941 -0.3838,0.6962 -0.6639,1.6965 -0.8251,2.5279 -0.279,1.44 -0.1095,2.9018 -0.1534,4.3591 l -0.0848,1.0741 c -0.1156,1.7104 -0.7781,3.3905 -0.7854,3.727 z m 7.408,-8.1559 c 0.1522,0.1752 0.33,0.2798 0.5267,0.4255 0.1993,0.1468 0.3351,0.2665 0.4853,0.4672 l 0.5199,1.4258 v 0.4969 c 0,1.3674 -0.4638,2.4588 -1.0075,3.5461 l -0.4824,1.0491 c 1.4816,0 2.8771,0.0411 4.3869,0.0411 l 3.3111,0.0417 c 0.5103,0 0.5644,6e-4 1.0761,0.0411 0.066,-0.1366 0.2185,-0.625 0.4889,-0.7523 l 1.0012,-0.2409 0.7033,0.0411 c 0,-0.9587 -0.11,-1.3788 -0.3359,-2.1479 -0.3515,-1.195 -0.6769,-2.4502 -1.2368,-3.5651 -0.6383,-1.2719 -1.6299,-2.3445 -2.7368,-3.2233 -0.8121,-0.6443 -2.0642,-1.4442 -3.0098,-1.792 l -0.8757,-0.3252 c -0.102,0.4394 -0.3353,0.9162 -0.5235,1.2977 -0.6466,1.306 -1.6648,2.2391 -2.291,3.1734 z m 27.8958,2.9396 c 1.027,0.5439 4.8438,2.5698 5.3112,2.7601 l 6.1529,1.959 c 0.4992,0.0779 1.9712,-0.207 2.3891,-0.2597 0.8589,-0.1085 2.1364,-0.1956 3.0325,-0.1956 1.0689,0 2.2564,0.3311 3.2164,0.7158 1.1104,0.4442 1.6016,0.7716 2.5864,1.3873 0.3778,0.2366 0.739,0.5028 1.125,0.7296 v -3.4739 c 0,-0.1987 0.0386,-0.3883 0.1089,-0.5621 -0.3115,-0.127 -0.6236,-0.2545 -0.9405,-0.3815 l -1.4556,-0.5723 c -0.5057,-0.1826 -1.0094,-0.3742 -1.5452,-0.5244 l -3.5504,-0.5885 -5.2149,0.2897 c -1.9343,0.0536 -3.8027,-0.6721 -5.6046,-1.1835 -0.7776,-0.2202 -2.9662,-1.0287 -3.7489,-1.3422 l -1.2415,-0.4549 c -0.042,0.5003 -0.4233,1.3232 -0.6208,1.6971 z M 146.632,82.4834 c -1.3675,0 -2.7766,-0.0828 -4.0969,-0.0828 -1.6144,0 -2.4004,0.3637 -3.5476,1.2127 -0.6854,0.5068 -1.2348,1.1571 -1.7816,1.7776 l -1.4079,1.5318 c -0.4218,0.4289 -1.1081,1.1254 -1.7057,1.3159 l -4.14,0.6616 c -0.962,0.0762 -3.2989,-0.1103 -4.1794,-0.207 -2.0528,-0.2253 -3.5163,-1.1942 -4.8602,0.7694 -0.1605,0.2352 -0.2512,0.5008 -0.3547,0.7625 0.1103,-0.0295 0.4641,-0.2316 0.6072,-0.3039 0.7288,-0.3665 1.5154,-0.5071 2.2952,-0.2401 0.5227,0.1792 0.9655,0.2254 1.5917,0.3129 1.1364,0.1596 2.2289,0.3045 3.3659,0.4003 0.5434,0.0456 1.203,0.0955 1.7481,0.1562 0.1465,0.0159 0.2965,-0.0043 0.443,0.0119 0.6806,0.0757 2.6351,0.1386 3.1765,0.0604 0.7314,-0.106 0.8496,-0.1409 1.5305,-0.3322 0.1394,-0.0395 0.2128,-0.0703 0.3362,-0.1188 2.0675,-0.8124 3.6541,-2.4758 5.7174,-3.3069 0.4598,-0.1851 0.9026,-0.3277 1.4463,-0.4575 l 1.7053,-0.1982 c 0.4246,0 0.8898,0.053 1.3221,0.0856 1.2586,0.0956 2.1923,0.2532 3.0809,0.3232 v -4.3379 c -0.7806,0.1398 -1.5851,0.2033 -2.2923,0.2033 z m -57.9425,36.5558 c 0,1.1376 0.0726,1.2583 0.6619,2.0282 0.0542,0.0706 0.08,0.1092 0.1548,0.1766 0.3957,0.3569 4.0524,1.7689 5.027,2.0098 l 0.53,0.1318 c 0,-0.2636 -0.0907,-0.3733 -0.1479,-0.597 -0.1245,-0.4841 -0.131,-0.8053 0.2616,-1.1106 0.8411,-0.6534 0.5125,-0.1769 1.601,0.1996 0.3892,0.1343 1.1027,0.3484 1.5137,0.3484 0.6554,0 0.612,-0.2393 0.7084,-0.5327 0.1278,-0.3903 2.5852,-4.8498 3.0404,-5.8603 0.0547,-0.1208 0.0542,-0.1046 0.0973,-0.1919 l 0.7072,-1.5282 c 0.1398,-0.3152 1.4,-2.9364 1.3436,-3.0475 -0.0518,-0.1035 -0.0802,-0.0476 -0.2009,0.002 -0.9148,0.3753 -3.1182,1.1386 -4.0576,1.3722 -0.3393,0.0845 -0.6735,0.1916 -0.9708,0.3124 -0.3008,0.1219 -0.6319,0.2234 -0.9624,0.3209 -0.3427,0.1003 -0.6383,0.1528 -1.0233,0.2174 -0.3586,0.0609 -0.7529,0.0791 -1.1424,0.1409 -1.1828,0.1882 -2.0355,0.3501 -3.1937,0.6148 l -2.1164,0.4493 c -1.3731,0.275 -1.1435,0.3044 -1.5384,2.27 -0.0731,0.3611 -0.1286,0.7228 -0.1723,1.1109 -0.0428,0.3761 -0.1208,0.7438 -0.1208,1.163 z m 1.2002,-4.9271 c 0.688,0 3.1737,-0.6288 4.1074,-0.8181 1.6237,-0.328 2.3896,-0.32 4.195,-0.7716 0.4703,-0.1174 0.8467,-0.2517 1.2637,-0.392 0.4153,-0.1398 0.8666,-0.2512 1.2824,-0.3731 0.8986,-0.2622 1.6336,-0.521 2.4664,-0.845 0.7957,-0.3101 1.0386,-0.46 1.7141,-0.7693 l 1.6365,-0.8464 c 0.6987,-0.3515 1.6055,-0.7251 2.3465,-0.9652 0.572,-0.1854 0.7092,-0.1627 1.2263,-0.4286 -0.1596,-0.0431 -0.3331,-0.1982 -0.4547,-0.2897 -0.4085,-0.3079 -0.8589,-0.616 -1.0514,-1.1849 -0.3503,-1.0369 -0.4977,-0.8722 -2.0114,-0.8853 -0.8504,-0.008 -1.5645,-1.0227 -2.0997,-1.5434 -0.3852,-0.3751 -0.7846,-0.3198 -1.5015,-0.3198 -0.6066,0 -1.2135,0 -1.8207,0 -0.6477,0 -1.1537,-0.0414 -1.7798,-0.0414 -0.5987,0 -1.228,0.019 -1.8222,0.001 -0.5436,-0.0161 -0.8937,-0.1998 -1.3067,0.4289 -0.2415,0.3668 -0.4728,0.7455 -0.7319,1.0902 l -0.7495,1.071 c -0.5856,0.8481 -1.2983,1.7368 -1.929,2.6248 -0.5556,0.7833 -0.938,1.427 -1.4403,2.2023 -0.1142,0.1763 -0.2472,0.3923 -0.3393,0.5712 -0.2268,0.439 -0.5689,0.9975 -0.7914,1.4853 -0.1049,0.2291 -0.3906,0.7827 -0.4088,0.9987 z"
         style="fill:#007dbe;fill-rule:evenodd;stroke:#ffffff;stroke-width:0;stroke-linecap:round;stroke-linejoin:round;stroke-miterlimit:4;stroke-dasharray:none"
         id="path834" />
      <path
         d="m 158.1693,94.3863 h -7.7449 V 81.4754 h 7.4467 v 2.3663 h -4.536 v 2.8735 h 4.2224 v 2.3573 h -4.2224 v 2.9534 h 4.8342 z m 12.5946,-5.5905 c 0,3.8756 -1.8071,5.8148 -5.4182,5.8148 -3.5067,0 -5.2585,-1.893 -5.2585,-5.6795 v -7.4557 h 2.9165 v 7.4897 c 0,2.0897 0.8176,3.1348 2.4495,3.1348 1.6013,0 2.4032,-1.0083 2.4032,-3.0274 v -7.5971 h 2.9075 z m 13.6423,5.5905 h -3.3407 l -2.0069,-3.3222 c -0.1505,-0.252 -0.2951,-0.4765 -0.4334,-0.676 -0.1381,-0.1968 -0.2764,-0.366 -0.4178,-0.5072 -0.1415,-0.1414 -0.2889,-0.2491 -0.4425,-0.3259 -0.1537,-0.0737 -0.3198,-0.1106 -0.4981,-0.1106 h -0.7835 v 4.9419 h -2.9106 V 81.4754 h 4.61 c 3.1348,0 4.7021,1.171 4.7021,3.5095 0,0.4519 -0.0706,0.8669 -0.2089,1.2479 -0.1383,0.3812 -0.3319,0.7253 -0.5839,1.0326 -0.252,0.3042 -0.5562,0.5686 -0.9128,0.7897 -0.3594,0.2246 -0.756,0.3966 -1.1954,0.5228 v 0.0368 c 0.1936,0.0615 0.3779,0.1568 0.5593,0.292 0.1812,0.1352 0.3535,0.2919 0.5224,0.4731 0.169,0.1814 0.3289,0.375 0.4825,0.5811 0.1536,0.2058 0.292,0.4087 0.4181,0.6083 z m -7.9229,-10.7319 v 3.5926 h 1.26 c 0.6239,0 1.1248,-0.1814 1.5027,-0.5409 0.3844,-0.3656 0.578,-0.8206 0.578,-1.3583 0,-1.131 -0.6761,-1.6934 -2.0285,-1.6934 z m 20.4835,10.7319 h -3.1686 l -0.919,-2.8734 h -4.5913 l -0.9099,2.8734 h -3.1532 l 4.7023,-12.9109 h 3.4481 z m -4.7543,-5.1049 -1.3861,-4.3393 c -0.1015,-0.3259 -0.1752,-0.7132 -0.2183,-1.1619 h -0.0706 c -0.0309,0.3782 -0.1046,0.7532 -0.2245,1.1248 l -1.4043,4.3764 z m 5.7716,4.61 v -2.8825 c 0.5225,0.4393 1.0911,0.7681 1.7025,0.9864 0.6117,0.2183 1.2294,0.3288 1.8533,0.3288 0.3688,0 0.6883,-0.0337 0.959,-0.0983 0.2732,-0.0675 0.5008,-0.1568 0.6851,-0.2767 0.1845,-0.1168 0.3197,-0.2551 0.4088,-0.4119 0.0924,-0.1596 0.1352,-0.3316 0.1352,-0.5193 0,-0.252 -0.0706,-0.4762 -0.2152,-0.6729 -0.1443,-0.1999 -0.341,-0.3841 -0.5899,-0.5502 -0.2489,-0.169 -0.5439,-0.332 -0.8883,-0.4856 -0.3411,-0.1568 -0.7098,-0.3166 -1.1064,-0.4793 -1.008,-0.4182 -1.7609,-0.9312 -2.2558,-1.5398 -0.4947,-0.6055 -0.7407,-1.3368 -0.7407,-2.1943 0,-0.6732 0.1324,-1.2509 0.4028,-1.7334 0.2704,-0.4856 0.6392,-0.8821 1.1032,-1.1957 0.4672,-0.3104 1.0049,-0.5408 1.6166,-0.6882 0.6115,-0.1477 1.26,-0.2214 1.9454,-0.2214 0.673,0 1.2694,0.0431 1.7887,0.123 0.5162,0.08 0.9958,0.2058 1.4352,0.3748 v 2.6923 c -0.2183,-0.1505 -0.4519,-0.2826 -0.707,-0.3966 -0.2548,-0.1136 -0.5193,-0.2089 -0.7897,-0.2857 -0.2673,-0.0737 -0.5377,-0.129 -0.8053,-0.1658 -0.2673,-0.034 -0.5193,-0.0525 -0.7591,-0.0525 -0.332,0 -0.6299,0.0309 -0.9003,0.0925 -0.2705,0.0643 -0.4981,0.1536 -0.6854,0.2673 -0.1846,0.1136 -0.3289,0.2488 -0.4335,0.4087 -0.1014,0.1599 -0.1505,0.3379 -0.1505,0.5346 0,0.2183 0.0553,0.4119 0.169,0.5809 0.1136,0.1723 0.2766,0.335 0.4887,0.4886 0.2089,0.1508 0.464,0.3014 0.7653,0.4488 0.2979,0.1477 0.6392,0.2982 1.0174,0.4549 0.5162,0.2152 0.9771,0.4456 1.3889,0.6883 0.4119,0.2429 0.7654,0.5196 1.0574,0.8237 0.2951,0.3073 0.5193,0.6577 0.676,1.0511 0.1568,0.3903 0.2336,0.8481 0.2336,1.3709 0,0.7219 -0.1352,1.3243 -0.4088,1.8161 -0.2735,0.4887 -0.6423,0.8853 -1.1126,1.1863 -0.4671,0.3044 -1.0111,0.5224 -1.6319,0.6548 -0.6239,0.1321 -1.2784,0.1965 -1.97,0.1965 -0.7067,0 -1.3799,-0.0584 -2.0192,-0.1781 -0.6392,-0.1199 -1.1953,-0.3013 -1.6625,-0.5411 z m 14.9179,-12.416 v 2.2495 h -1.0786 v 8.4119 h 1.0786 v 2.2495 h -5.0678 v -2.2495 h 1.0786 v -8.4119 h -1.0786 v -2.2495 z m 13.2092,12.9109 h -3.1686 l -0.919,-2.8734 h -4.5913 l -0.9099,2.8734 h -3.1532 l 4.7024,-12.9109 h 3.448 z m -4.7543,-5.1049 -1.3861,-4.3393 c -0.1015,-0.3259 -0.1752,-0.7132 -0.2183,-1.1619 h -0.0706 c -0.0309,0.3782 -0.1046,0.7532 -0.2245,1.1248 l -1.4043,4.3764 z m 17.9819,5.1049 h -2.935 l -5.3232,-8.1136 c -0.3104,-0.4734 -0.5284,-0.8297 -0.6483,-1.0695 h -0.0337 c 0.0459,0.455 0.0706,1.1526 0.0706,2.0869 v 7.0962 h -2.7477 V 81.4754 h 3.1349 l 5.1233,7.8585 c 0.2336,0.3563 0.4487,0.7066 0.6483,1.0542 h 0.0369 c -0.0491,-0.2982 -0.0738,-0.8915 -0.0738,-1.7734 v -7.1393 h 2.7477 z m -77.2971,20.1555 h -2.935 l -5.3232,-8.1136 c -0.3104,-0.4734 -0.5284,-0.8297 -0.6483,-1.0695 h -0.0337 c 0.0459,0.4549 0.0706,1.1525 0.0706,2.0868 v 7.0963 h -2.7477 v -12.911 h 3.1349 l 5.1233,7.8585 c 0.2336,0.3563 0.4487,0.7067 0.6483,1.0542 h 0.0368 c -0.049,-0.2982 -0.0737,-0.8915 -0.0737,-1.7733 v -7.1394 h 2.7477 z m 14.3061,0 h -3.1685 l -0.919,-2.8735 h -4.5913 l -0.9099,2.8735 h -3.1533 l 4.7024,-12.911 h 3.4481 z m -4.7542,-5.1049 -1.3862,-4.3393 c -0.1014,-0.326 -0.1751,-0.7132 -0.2182,-1.1619 h -0.0706 c -0.0309,0.3781 -0.1046,0.7532 -0.2245,1.1248 l -1.4043,4.3764 z m 14.1463,-5.4397 h -3.6851 v 10.5446 h -2.9165 v -10.5446 h -3.6632 v -2.3664 h 10.2648 z m 5.7254,-2.3664 v 2.2496 h -1.0786 v 8.4118 h 1.0786 v 2.2496 h -5.0678 v -2.2496 h 1.0786 v -8.4118 h -1.0786 v -2.2496 z m 7.3117,13.1352 c -1.8502,0 -3.3562,-0.6023 -4.521,-1.804 -1.1648,-1.2047 -1.7456,-2.772 -1.7456,-4.7052 0,-2.0406 0.5899,-3.691 1.7734,-4.951 1.1832,-1.2603 2.7473,-1.8932 4.699,-1.8932 1.8439,0 3.3346,0.6054 4.4716,1.8102 1.1373,1.2078 1.7056,2.7998 1.7056,4.7729 0,2.0282 -0.5899,3.6664 -1.7702,4.908 -1.1769,1.2415 -2.7167,1.8623 -4.6128,1.8623 z m 0.1258,-10.8487 c -1.0202,0 -1.8317,0.3812 -2.431,1.1494 -0.5992,0.7654 -0.9005,1.7765 -0.9005,3.0365 0,1.2784 0.3013,2.2895 0.9005,3.0365 0.5993,0.7438 1.3862,1.1157 2.3573,1.1157 1.0049,0 1.7978,-0.3629 2.3879,-1.0851 0.5871,-0.7251 0.8822,-1.7272 0.8822,-3.0118 0,-1.34 -0.286,-2.3817 -0.8544,-3.1255 -0.5717,-0.7438 -1.3524,-1.1157 -2.342,-1.1157 z m 20.0166,10.6245 h -2.935 l -5.3232,-8.1136 c -0.3104,-0.4734 -0.5283,-0.8297 -0.6483,-1.0695 h -0.0337 c 0.0459,0.4549 0.0706,1.1525 0.0706,2.0868 v 7.0963 h -2.7476 v -12.911 h 3.1348 l 5.1233,7.8585 c 0.2336,0.3563 0.4488,0.7067 0.6483,1.0542 h 0.0369 c -0.0491,-0.2982 -0.0737,-0.8915 -0.0737,-1.7733 v -7.1394 h 2.7476 z m 14.3062,0 h -3.1686 l -0.919,-2.8735 h -4.5913 l -0.9099,2.8735 h -3.1532 l 4.7024,-12.911 h 3.448 z m -4.7543,-5.1049 -1.3861,-4.3393 c -0.1015,-0.326 -0.1752,-0.7132 -0.2183,-1.1619 h -0.0706 c -0.0309,0.3781 -0.1046,0.7532 -0.2245,1.1248 l -1.4043,4.3764 z m 14.0542,5.1049 h -7.6896 v -12.911 h 2.9107 v 10.5506 h 4.7789 z m -81.5749,14.565 c 0,3.8755 -1.8071,5.8147 -5.4181,5.8147 -3.5068,0 -5.2586,-1.893 -5.2586,-5.6795 v -7.4557 h 2.9166 v 7.4897 c 0,2.0897 0.8175,3.1348 2.4494,3.1348 1.6013,0 2.4032,-1.0082 2.4032,-3.0274 v -7.5971 h 2.9075 z m 14.4261,5.5905 h -2.935 l -5.3232,-8.1136 c -0.3104,-0.4734 -0.5284,-0.8297 -0.6483,-1.0696 h -0.0337 c 0.0459,0.455 0.0706,1.1526 0.0706,2.0869 v 7.0963 h -2.7476 v -12.911 h 3.1348 l 5.1233,7.8585 c 0.2336,0.3563 0.4488,0.7067 0.6483,1.0542 h 0.0369 c -0.0491,-0.2982 -0.0737,-0.8915 -0.0737,-1.7734 v -7.1393 h 2.7476 z m 6.9395,-12.911 v 2.2496 h -1.0786 v 8.4118 h 1.0786 v 2.2496 h -5.0678 v -2.2496 h 1.0786 v -8.4118 h -1.0786 v -2.2496 z m 12.6068,0 -4.4501,12.911 h -3.2947 l -4.3949,-12.911 h 3.1349 l 2.6923,8.9864 c 0.1443,0.4856 0.2305,0.9127 0.2611,1.2878 h 0.0524 c 0.0431,-0.4028 0.1352,-0.8453 0.2795,-1.3247 l 2.6739,-8.9495 z m 9.2908,12.911 h -7.7448 v -12.911 h 7.4466 v 2.3664 h -4.536 v 2.8734 h 4.2225 v 2.3573 h -4.2225 v 2.9535 h 4.8342 z m 12.9019,0 h -3.3406 l -2.0069,-3.3222 c -0.1506,-0.252 -0.2951,-0.4765 -0.4335,-0.6761 -0.138,-0.1967 -0.2763,-0.366 -0.4178,-0.5071 -0.1414,-0.1415 -0.2888,-0.2492 -0.4425,-0.326 -0.1536,-0.0737 -0.3197,-0.1106 -0.498,-0.1106 h -0.7835 v 4.942 h -2.9106 v -12.911 h 4.61 c 3.1348,0 4.7021,1.171 4.7021,3.5096 0,0.4518 -0.0706,0.8668 -0.209,1.2478 -0.1383,0.3812 -0.3319,0.7254 -0.5839,1.0326 -0.252,0.3042 -0.5561,0.5687 -0.9127,0.7898 -0.3595,0.2245 -0.756,0.3965 -1.1954,0.5227 v 0.0368 c 0.1936,0.0615 0.3778,0.1568 0.5593,0.292 0.1811,0.1352 0.3534,0.292 0.5224,0.4731 0.1689,0.1814 0.3288,0.375 0.4824,0.5811 0.1537,0.2058 0.292,0.4088 0.4182,0.6083 z m -7.9228,-10.732 v 3.5926 h 1.26 c 0.6239,0 1.1248,-0.1814 1.5026,-0.5408 0.3844,-0.3657 0.578,-0.8207 0.578,-1.3584 0,-1.131 -0.6761,-1.6934 -2.0285,-1.6934 z m 8.5345,10.237 v -2.8825 c 0.5225,0.4393 1.0911,0.7682 1.7025,0.9864 0.6117,0.2183 1.2294,0.3289 1.8533,0.3289 0.3688,0 0.6883,-0.0338 0.959,-0.0984 0.2732,-0.0675 0.5009,-0.1568 0.6851,-0.2767 0.1845,-0.1168 0.3198,-0.2551 0.4088,-0.4118 0.0924,-0.1596 0.1352,-0.3317 0.1352,-0.5193 0,-0.252 -0.0706,-0.4763 -0.2152,-0.673 -0.1443,-0.1998 -0.341,-0.3841 -0.5899,-0.5502 -0.2488,-0.1689 -0.5439,-0.3319 -0.8883,-0.4856 -0.341,-0.1567 -0.7098,-0.3166 -1.1064,-0.4793 -1.008,-0.4181 -1.7609,-0.9312 -2.2558,-1.5398 -0.4947,-0.6055 -0.7407,-1.3368 -0.7407,-2.1943 0,-0.6732 0.1324,-1.2509 0.4028,-1.7334 0.2704,-0.4856 0.6392,-0.8821 1.1032,-1.1956 0.4672,-0.3104 1.0049,-0.5409 1.6166,-0.6883 0.6115,-0.1477 1.26,-0.2214 1.9455,-0.2214 0.6729,0 1.2693,0.0431 1.7886,0.1231 0.5162,0.0799 0.9958,0.2058 1.4352,0.3747 v 2.6923 c -0.2183,-0.1505 -0.4518,-0.2826 -0.707,-0.3965 -0.2548,-0.1137 -0.5193,-0.2089 -0.7897,-0.2858 -0.2673,-0.0737 -0.5377,-0.1289 -0.8053,-0.1658 -0.2673,-0.034 -0.5193,-0.0524 -0.7591,-0.0524 -0.332,0 -0.6299,0.0309 -0.9003,0.0924 -0.2704,0.0643 -0.4981,0.1536 -0.6854,0.2673 -0.1846,0.1137 -0.3289,0.2489 -0.4335,0.4087 -0.1014,0.1599 -0.1505,0.3379 -0.1505,0.5347 0,0.2182 0.0553,0.4118 0.169,0.5808 0.1136,0.1723 0.2766,0.335 0.4887,0.4887 0.2089,0.1508 0.464,0.3013 0.7653,0.4487 0.2979,0.1477 0.6392,0.2982 1.0174,0.455 0.5162,0.2151 0.9771,0.4456 1.3889,0.6882 0.4119,0.2429 0.7654,0.5196 1.0574,0.8238 0.2951,0.3072 0.5193,0.6576 0.676,1.051 0.1568,0.3904 0.2336,0.8482 0.2336,1.3709 0,0.722 -0.1352,1.3243 -0.4087,1.8161 -0.2736,0.4887 -0.6424,0.8853 -1.1126,1.1863 -0.4672,0.3045 -1.0112,0.5225 -1.632,0.6548 -0.6239,0.1321 -1.2784,0.1965 -1.97,0.1965 -0.7067,0 -1.3799,-0.0584 -2.0191,-0.178 -0.6393,-0.1199 -1.1954,-0.3014 -1.6626,-0.5412 z m 14.9179,-12.416 v 2.2496 h -1.0786 v 8.4118 h 1.0786 v 2.2496 h -5.0678 v -2.2496 h 1.0786 v -8.4118 h -1.0786 v -2.2496 z m 10.9228,2.3664 h -3.6851 v 10.5446 h -2.9165 v -10.5446 h -3.6633 v -2.3664 h 10.2649 z m 11.8383,-2.3664 -4.2044,8.3194 v 4.5916 h -2.9074 v -4.5394 l -4.0967,-8.3716 h 3.3222 l 2.0807,4.8158 c 0.0368,0.0893 0.1352,0.4425 0.295,1.0542 h 0.0369 c 0.0799,-0.4334 0.1721,-0.7713 0.2798,-1.0174 l 2.1175,-4.8526 z"
         style="fill:#007dbe;fill-rule:evenodd;stroke:#ffffff;stroke-width:0;stroke-linecap:round;stroke-linejoin:round;stroke-miterlimit:4;stroke-dasharray:none"
         id="path836" />
    </g>
  </g>
  <g
     id="Layer1000"
     transform="matrix(0.26458333,0,0,0.26458333,-79.570254,6.7945002)"
     inkscape:export-filename="/Users/ddd/Documents/enu_logo/logo-kz.png"
     inkscape:export-xdpi="191.88116"
     inkscape:export-ydpi="191.88116">
    <path
       d="m 301.5808,61.8355 v 77.548 h 212.2498 v -77.548 z"
       style="fill:#1b1918;fill-opacity:0;fill-rule:evenodd"
       id="path928" />
    <g
       id="Layer1001"
       inkscape:export-filename="/Users/ddd/Documents/enu_logo/logo-kz.png"
       inkscape:export-xdpi="190.18909"
       inkscape:export-ydpi="190.18909">
      <path
         d="m 357.6101,109.5959 c 0.0473,0.1029 0.0771,0.9502 0.01,1.1693 -0.1108,0.36 -0.7259,0.3248 -1.0445,0.3223 -0.4589,-0.003 -0.8292,0.0428 -1.3255,0.0411 -0.4476,-0.001 -0.834,0.0414 -1.3255,0.0414 -0.9102,0 -1.747,0.0428 -2.6923,0.0414 l -1.3244,0.0428 c -0.5417,0.0397 -0.7509,0.5394 -1.6554,1.0375 -0.2781,0.1525 -0.618,0.3254 -0.9187,0.4478 -1.3374,0.5426 -2.7491,0.8949 -4.1315,1.3354 -0.8566,0.273 -1.9355,0.5287 -2.8616,0.5352 -0.5706,0.004 -2.7791,0.1417 -3.1422,0.2543 -0.3166,0.0978 -0.5377,0.3832 -0.6378,0.729 l -0.6281,2.1056 c -0.055,0.1902 -0.1137,0.2875 -0.1721,0.4907 -0.1709,0.5961 -0.7061,1.1563 -1.1262,1.6081 l -1.5744,1.8224 c -0.0793,0.085 -0.0762,0.1006 -0.1462,0.1854 -0.0599,0.0711 -0.1027,0.0998 -0.1636,0.1675 -0.0728,0.0828 -0.072,0.1029 -0.146,0.1851 -0.8175,0.9179 -1.9905,2.1923 -2.6603,3.1808 0.1922,0.0158 0.462,0.0722 0.6622,0.083 0.2693,0.0142 0.4827,0.0207 0.7069,0.0394 0.9496,0.0783 1.8786,0.006 2.8318,0.1505 0.4544,0.0684 1.0041,0.008 1.4559,0.076 0.5874,0.089 1.4743,-0.0173 2.0305,-0.1579 1.0102,-0.2562 2.1172,-0.3844 3.0759,-0.6928 1.2685,-0.4093 2.9775,-1.241 4.2156,-1.7912 l 3.5893,-1.6299 0.5666,-0.0541 c -0.083,0.2281 -0.6658,0.4946 -0.8719,0.6188 -1.0871,0.6562 -1.7303,1.0672 -2.2901,2.2252 -0.4221,0.8716 -0.9139,2.9086 -1.1535,3.8593 -0.1794,0.7104 -0.5788,3.1581 -0.6576,3.4019 l -0.3285,0.7078 c -0.8448,0 -1.6322,-0.1514 -2.4622,-0.2719 -1.4355,-0.2083 -2.802,-0.4005 -4.2293,-0.6573 -0.6199,-0.1114 -1.5965,-0.3966 -2.213,-0.3966 -0.3061,0 -0.6962,0.7189 -1.0868,1.1081 -0.7974,0.7945 -1.5307,1.385 -2.3978,2.0764 -0.1372,0.1097 -0.2897,0.2123 -0.419,0.3268 -0.6188,0.5496 -1.2657,2.0741 -1.6458,2.8276 0.4609,0.0382 0.8649,0.1522 1.3122,0.2202 0.108,0.0159 0.2673,0.025 0.4569,0.0278 h 0.2934 c 0.7591,-0.0102 1.7739,-0.0921 2.126,-0.2013 0.2639,-0.0816 0.58,-0.2009 0.7945,-0.3645 0.1095,-0.0825 0.1001,-0.1312 0.1112,-0.3036 0.0388,-0.6386 0.0544,-0.9864 -0.5658,-1.2988 -0.4791,-0.2424 -0.3728,-0.1335 -0.7183,-0.5655 0.3163,-0.1525 0.8569,-0.2177 1.1599,-0.3731 0.1945,-0.1003 0.2044,-0.2752 0.2648,-0.5224 0.0564,-0.229 0.1063,-0.3538 0.2315,-0.555 0.2118,0 0.5851,0.0343 0.694,0.1346 0.1037,0.0961 0.1754,0.4845 0.2174,0.6526 l 0.58,1.1602 c 0.2596,-0.0607 0.6851,-0.6888 0.8583,-0.923 0.256,-0.3444 0.4116,-0.8492 1.0227,-0.7546 1.0698,0.165 2.1779,0.2838 3.2256,0.4218 l 6.8215,0.4269 c -0.3166,-1.8479 -0.3398,-1.5896 0.0525,-3.5937 0.0672,-0.3444 0.0896,-0.6582 0.2248,-0.9763 0.1136,-0.2664 0.2973,-0.5703 0.4623,-0.7804 0.087,-0.1105 0.1726,-0.2094 0.2602,-0.3197 0.0785,-0.0995 0.1948,-0.2659 0.2832,-0.3379 0.3869,-0.3178 2.48,-0.629 3.0246,-0.6619 1.2835,-0.0782 2.7535,0.2823 4.284,0.0598 0.3914,-0.057 0.8093,-0.11 1.1851,-0.1403 0.4496,-0.0369 0.8068,3e-4 1.2036,-0.0811 2.0194,-0.4127 4.5116,-2.1781 5.8065,-3.7202 0.0661,-0.0782 0.093,-0.1012 0.1534,-0.178 0.0972,-0.1253 0.1933,-0.244 0.2894,-0.373 0.3688,-0.4927 0.75,-1.0219 1.0352,-1.5747 0.0777,-0.1502 0.1494,-0.2565 0.2353,-0.4283 0.0833,-0.1658 0.1264,-0.288 0.2069,-0.4552 l 0.5941,-2.0577 c 0.0448,-0.3189 -0.0569,-1.0023 -0.1074,-1.3433 -0.1817,-1.2266 0.3702,-1.899 -0.6077,-2.8715 l -1.0973,-1.1818 c -0.3802,-0.3798 -0.7838,-0.7775 -1.2113,-1.1081 -0.4249,-0.3276 -0.8257,-0.7018 -1.2756,-1.0026 -0.4595,-0.3078 -0.9382,-0.6409 -1.4638,-0.8555 -0.2789,-0.1142 -0.4935,-0.2182 -0.8076,-0.3106 -0.8036,-0.2373 -2.1123,-0.4748 -2.9557,-0.5242 -0.1839,0 -0.1627,0.0417 -0.373,0.0417 z M 343.9006,80.678 c 0.4663,0.2242 0.4578,-0.1103 0.4558,-0.5791 v -1.2436 c -0.1794,0.2067 -0.297,1.4919 -0.4558,1.8227 z m -23.8558,23.7807 c 0.1381,-0.0732 0.72,-0.474 0.7866,-0.5803 l 0.4142,-0.953 c -1.1585,0 -0.9601,-0.182 -1.0789,0.7027 -0.0368,0.2716 -0.1219,0.5454 -0.1219,0.8306 z m -3.2717,-21.1703 c 0.0518,0.2242 0.3622,0.7498 0.4963,0.9944 0.3946,-0.1054 0.548,-0.9933 1.6676,0.114 0.3243,0.3203 0.0451,0.1298 0.4865,0.4249 l -0.7319,-2.003 -0.1792,-0.2344 c -0.4515,0 -0.7704,-0.0014 -1.1693,0.2395 -0.1562,0.0941 -0.4816,0.3314 -0.57,0.4646 z m 29.1988,-19.6373 c 0,0.1936 -0.0553,0.2821 -0.1312,0.4065 -0.2469,0.4 -0.326,0.86 -0.3246,1.3745 0.003,0.7807 -0.0414,1.455 -0.0414,2.196 0,1.5163 -0.0468,2.9064 -0.0405,4.4343 l -0.0425,1.076 v 2.2374 c 10e-4,0.4056 -0.0411,0.659 -0.0409,1.0766 3e-4,0.8294 0.0253,1.9786 0.001,2.7774 -0.006,0.2157 -0.0443,0.2823 -0.0437,0.5363 l 0.1664,0.9538 c 0,-1.476 0.0471,-2.8814 0.0414,-4.392 -10e-4,-0.3943 0.0417,-0.6579 0.0417,-1.0763 v -2.2374 c -3e-4,-0.4184 0.0425,-0.6718 0.0411,-1.0774 -0.001,-0.7319 0,-1.4635 0,-2.1954 0,-0.6526 0.0439,-3.9725 0.0941,-4.381 0.2086,-1.6991 0.9099,-1.2294 0.32,-2.3312 l -0.3311,-0.5797 c -0.483,0.1293 0.29,0.6834 0.29,1.2016 z m -10.603,37.5758 c 0.7282,0.1698 1.3944,0.1534 2.2796,0.1644 0.4352,0.005 0.6755,0.1191 1.0599,-0.0969 0,0 0.3878,-0.8263 0.3878,-0.8958 0,-0.1981 -0.5389,-0.197 -0.7863,-0.2072 -0.7762,-0.032 -1.8678,-0.008 -2.6354,0.0981 -0.3268,0.0451 -0.3056,0.1 -0.3056,0.9374 z m 9.0289,-37.5758 c 0,0.6004 0.4281,0.6117 0.4986,1.6974 0.0426,0.6551 -8e-4,1.4023 -8e-4,2.1555 0,1.4734 -0.0502,2.7754 -0.0417,4.3503 0.002,0.3555 -0.0414,0.6355 -0.0414,1.0352 0,2.5642 -0.0589,5.1815 -0.083,7.7477 h 0.1661 c 0,-0.7563 0.0408,-1.3831 0.0408,-2.1546 0,-1.8173 0.0482,-3.5499 0.0414,-5.4275 -0.002,-0.3941 0.0417,-0.6577 0.0417,-1.0769 -6e-4,-0.7319 0,-1.4638 0,-2.196 0,-0.7844 0.0416,-1.4318 0.0416,-2.1955 0,-1.1729 -0.0941,-2.4772 0.4003,-3.452 0.3331,-0.6582 0.197,-0.6868 -0.4003,-1.7263 -0.0822,0.0598 -0.6633,0.8623 -0.6633,1.2427 z m 0.0828,42.2989 c 0.0799,0.2968 0.7234,0.4561 0.8702,0.4561 1.8947,0 3.6672,-0.1242 5.5497,-0.1242 l 2.0713,-0.0419 c 0.284,0.001 0.4396,-0.0292 0.6619,-0.0414 0.4569,-0.0247 0.9487,0.0422 1.3847,-0.0238 l 1.3907,-0.0587 c -0.005,-0.2061 -0.0856,-0.4805 -0.2245,-0.5641 -0.1403,-0.0839 -0.4754,-0.0196 -0.7294,-0.0173 l -2.6138,0.2021 c -0.1355,0.015 -0.2727,-0.001 -0.4082,0.006 -0.1823,0.01 -0.1732,0.038 -0.3713,0.0434 l -1.948,0.0813 -4.0178,0.0417 c -0.2764,0 -0.5528,0 -0.8295,-0.001 -0.2973,-9e-4 -0.4583,0.0425 -0.786,0.0425 z m 4.8464,-24.6501 c 0.1295,0.1766 0.6072,0.4533 0.8918,0.5168 l 6.8592,-0.262 c 0.2002,-0.0226 0.4896,-0.0059 0.6988,-0.0051 0.282,9e-4 0.3787,-0.0447 0.661,-0.0433 0.756,0.0031 0.6208,0.013 1.3675,-0.0822 -0.0105,-0.4729 -0.1523,-0.8107 -0.6857,-0.7291 -0.957,0.1465 -1.9798,0.1601 -2.7219,0.2619 l -3.5078,0.1783 c -0.2767,-0.0011 -0.4998,-8e-4 -0.7166,0.0292 z m -5.8402,14.0029 c 0.1139,-0.0763 0.2083,-0.1727 0.2959,-0.2838 0.3884,-0.4873 0.409,-0.4719 0.7399,-1.0834 l 1.7523,-3.094 0.6492,-1.7943 c -0.1885,0 -0.9485,0.0822 -1.0588,0.1423 -0.1939,0.1057 -0.3506,0.5238 -0.4595,0.7412 -0.7268,1.4531 -1.1154,1.2997 -1.6041,3.2423 -0.123,0.4884 -0.3149,1.6294 -0.3149,2.1297 z M 317.7247,84.8625 c 0,1.1664 0.8073,3.5337 1.3671,4.64 l 1.3255,-0.4141 c 0,-0.288 -0.0544,-0.4958 -0.095,-0.7753 -0.0986,-0.68 -0.3033,-1.4924 -0.6426,-2.0497 -0.1159,-0.1914 -0.1978,-0.3561 -0.3223,-0.548 l -0.3798,-0.5309 -0.9624,-0.8603 c -0.1967,-0.0748 -0.2905,0.4175 -0.2905,0.5383 z m 1.3671,-2.4024 c 0.006,0.2602 1.4122,4.5031 1.5486,4.9139 0.3342,1.0054 0.0847,0.4994 0.6052,1.5488 0.3844,0 0.2018,-0.5204 0.2066,-0.9935 0.004,-0.4147 -0.2653,-2.8953 -0.3189,-3.327 -0.0966,-0.7728 -0.0734,-2.2156 -0.5782,-2.4058 -0.1877,-0.0706 -0.2985,-0.0513 -0.5029,-0.0215 -0.5879,0.0873 -0.6086,0.2029 -0.9604,0.2851 z m 14.4133,19.8859 c 0,0.8552 -0.388,0.7977 -1.2858,0.7844 -0.2724,-0.004 -0.4631,0.003 -0.242,0.2418 0.6179,0.6664 1.0474,1.1718 2.0556,1.0338 0.4031,-0.0556 0.9891,0.0121 1.5432,0.0113 0.0465,-0.5559 0.6472,-1.6501 -0.2165,-2.518 -0.1412,-0.1415 -0.241,-0.2583 -0.4207,-0.366 -0.4782,-0.2117 -0.8918,-0.2457 -1.3181,0.0578 -0.269,0.192 -0.1157,0.3666 -0.1157,0.7549 z m 1.45,-4.2256 c 0.002,0.1006 0.3339,1.5562 0.5357,1.6591 0.1267,0.0652 2.7567,0.0048 3.1578,-0.0365 0.5114,-0.0533 0.7832,-0.0641 0.7798,-0.8768 -0.003,-0.8626 0.1281,-0.1154 -0.1661,-1.4088 -0.239,0 -3.9694,0.5839 -4.3072,0.663 z M 321.3283,82.2115 c 0,0.4598 0.2858,2.7366 0.3297,3.3988 l 0.2974,2.9749 0.1601,0.3376 c 0.8669,0 0.7334,0.0658 0.7569,-0.3492 0.0331,-0.5865 0.0303,-0.8141 0.0303,-1.4326 l 0.0411,-2.9821 c 0,-0.3384 0.1423,-1.684 -0.0924,-1.855 -0.009,-0.0056 -0.7248,-0.2585 -0.86,-0.2585 -0.3201,0 -0.4317,0.1123 -0.6631,0.1661 z m -6.7512,2.1957 c 0.0397,0.1687 0.3158,0.5349 0.4226,0.6957 0.1622,0.2432 0.2994,0.4481 0.464,0.6962 l 1.8474,2.7513 c 0.3319,0.498 0.6055,0.8923 0.9113,1.4079 0.2044,-0.0048 0.3232,-0.0983 0.3728,-0.29 0.01,-0.0405 -0.7461,-2.1628 -0.8238,-2.4077 -0.2211,-0.6965 -0.4963,-2.0154 -0.7358,-2.4953 -0.1273,-0.2537 -0.2537,-0.4471 -0.3955,-0.6821 l -0.4059,-0.6706 c -0.7492,0.1746 -1.2844,0.4379 -1.6571,0.9946 z m 28.7441,21.8325 c 0,0.1287 0.023,0.0541 0.2177,0.2387 0.7526,0.7134 1.1319,0.771 2.2706,1.0014 0.5292,0.1072 1.099,0.1299 1.7376,0.1287 0.2483,0 0.4235,-0.0425 0.9099,-0.0425 2.867,6e-4 5.4352,-0.0689 8.2834,-0.1661 l -0.1658,-0.8286 c -0.2897,0 -0.5797,6e-4 -0.8697,0 -0.3455,0 -0.5762,0.0428 -0.8679,0.0428 -0.648,9e-4 -1.1568,0.04 -1.7827,0.04 -0.6452,0 -1.1396,0.0448 -1.781,0.042 l -5.2617,0.1635 c -0.3722,0.001 -0.4371,0.059 -0.8297,0.005 -0.2886,-0.0399 -0.4873,-0.1031 -0.7016,-0.2097 -0.2106,-0.1032 -0.3725,-0.2223 -0.5967,-0.3147 -0.3075,-0.1255 -0.5624,-0.3305 -0.5624,-0.1003 z m -11.0168,-13.3815 0.8283,0.9533 c 1.1316,-0.599 3.577,-2.3171 4.7219,-3.1068 -0.0737,-0.3141 -0.3949,-0.7209 -0.5893,-0.9439 -0.4079,-0.4669 -0.2407,-0.2968 -0.7778,-0.7552 l -1.0463,0.9422 c -0.4022,0.4037 -0.8949,0.8232 -1.3249,1.2025 -0.0953,0.0836 -0.1545,0.1619 -0.2483,0.2483 -0.1055,0.0978 -0.1625,0.1196 -0.2705,0.2268 -0.3313,0.3282 -1.1494,1.0185 -1.2931,1.2328 z m -8.9051,-9.3629 6e-4,2.1963 c 10e-4,0.277 -0.036,0.3943 -0.0434,0.6194 -0.006,0.2032 0.0125,0.4224 0.002,0.6236 -0.0281,0.5199 -0.1097,1.3428 -0.0383,1.8184 l 0.9915,0.2943 c 0.0341,-0.1491 0.0633,-0.1537 0.1007,-0.3549 l 0.4671,-2.8882 c 0.0621,-0.3722 0.4842,-2.9543 0.5086,-3.3027 0.0289,-0.4144 -1.3989,-0.4941 -1.7723,-0.4056 -0.4059,0.0964 -0.216,0.7543 -0.216,1.3994 z m 5.7575,6.9191 1.4491,0.9116 c 0.03,-0.1128 0.9527,-1.4533 1.1049,-1.7115 l 1.7943,-2.9704 c -0.3194,-0.4777 -1.216,-0.8592 -1.7393,-1.0772 -0.1097,0.2072 -0.2055,0.3685 -0.3175,0.5939 l -0.3314,0.621 c -0.229,0.4085 -0.4192,0.8056 -0.659,1.2053 -0.1233,0.2064 -0.1919,0.394 -0.3155,0.5959 z m 31.1046,-7.416 -0.2073,-1.0355 c -0.2021,-0.0476 -1.3178,-0.0065 -1.6999,-0.0022 -0.2392,0.0036 -0.3118,0.0462 -0.5774,0.0445 -0.3436,-0.0017 -3.2102,0.0819 -3.5274,0.1173 -0.1775,0.0201 -0.4306,0.0065 -0.6157,0.0054 -0.2659,-0.0011 -0.3583,0.0371 -0.5777,0.0434 -0.9366,0.0266 -1.8491,0.1233 -2.6938,0.1233 -0.4671,0 -0.9439,-0.2038 -1.2492,-0.4493 -0.2971,-0.2395 -0.097,-0.1375 -0.7387,-0.2965 0.0637,0.0944 0.1114,0.1292 0.1941,0.2194 l 0.4111,0.4172 c 0.006,0.0063 0.0147,0.0154 0.0201,0.0219 0.292,0.305 0.394,0.3861 0.7588,0.5252 0.233,0.089 0.4113,0.1392 0.6591,0.2104 0.7962,0.2296 0.9088,0.1559 1.4598,0.2389 0.3544,0.0533 0.4643,-0.0201 0.8036,-0.0184 0.3311,9e-4 0.5616,-0.0264 0.8286,-0.0411 0.258,-0.0136 0.5664,-6e-4 0.8294,6e-4 0.3348,0.0017 0.4927,-0.0437 0.8275,-0.0414 0.5796,0.0028 1.1602,0 1.7399,0 l 2.5259,-0.0417 c 0.4541,3e-4 0.6117,-0.0366 0.8292,-0.0414 z m -3.4376,25.6442 c 0.0479,-0.4374 0.066,-0.2843 -0.0417,-0.6622 -0.6117,-0.1431 -1.2708,-0.0416 -1.9882,-0.0416 h -3.1893 c -0.4042,0 -0.6636,0.0436 -1.0349,0.0416 -0.5717,-0.003 -1.6262,-0.0598 -2.1427,0.0111 -1.2376,0.1695 -2.6161,0.005 -3.7857,-0.3373 -0.7084,-0.2084 -0.8901,-0.3408 -1.3513,-0.8031 l -1.2943,-0.8594 c 0.0298,0.3526 0.8011,1.2772 1.1472,1.5865 0.6812,0.61 1.7819,1.1265 2.7097,1.2257 0.7203,0.0768 1.1763,-0.0391 1.6095,-0.0377 0.1936,9e-4 0.3869,9e-4 0.5808,9e-4 0.7461,0 1.3833,-0.0414 2.1535,-0.0414 0.7143,0 1.5361,0.038 2.2371,3e-4 0.4861,-0.0261 0.4935,-0.0417 1.0763,-0.0417 z M 334.2923,96.2141 c 0.1171,0.2217 0.3997,1.1492 0.4966,1.4502 0.2461,0 3.2758,-0.4864 3.7095,-0.5564 0.6531,-0.106 1.0105,-0.0122 1.0967,-0.6429 l 0.0811,-0.7892 -0.3725,-1.3258 c -0.8235,0.0689 -4.2886,1.38 -5.0114,1.8641 z m -3.272,-4.557 c 0.0796,0.1089 0.7271,0.629 0.8697,0.7455 0.1819,-0.0484 0.6995,-0.4895 0.8591,-0.6318 l 2.6303,-2.4236 0.6939,-0.8388 c -0.4257,-0.6352 -1.4627,-1.2124 -2.1124,-1.6152 -0.1556,0.1038 -1.4354,2.2638 -1.493,2.3593 l -0.3625,0.5896 c -0.1622,0.2574 -1.046,1.6464 -1.0851,1.815 z m -3.8931,-2.1546 c 0.2443,0.1298 1.2192,0.5213 1.5735,0.663 0.3878,-0.733 1.1047,-1.8275 1.5335,-2.6506 0.4882,-0.9397 0.6483,-1.2306 1.0761,-2.238 -0.091,-0.0246 -0.7424,-0.5012 -0.982,-0.5921 l -1.2129,-0.402 c -0.013,0.1466 -1.571,4.1139 -1.7459,4.551 -0.0813,0.2038 -0.1876,0.4337 -0.2423,0.6687 z m 52.2125,25.7233 c -0.1109,0.0519 -0.254,0.142 -0.4822,0.2945 -0.1233,0.0825 -0.2129,0.1395 -0.3544,0.2248 l -1.6749,0.6452 c -0.3487,0.0649 -2.7236,-0.6628 -2.7335,-0.6628 -0.3713,0 -0.8081,0.7645 -0.9938,1.0772 0.1652,0.2477 0.7092,0.498 1.0227,0.6335 0.2563,0.0851 1.2303,0.3192 1.5035,0.3192 1.0517,0 2.1833,-0.9037 4.1006,-0.9521 0.3609,-0.009 0.6934,-0.0261 1.0004,-0.2427 0.6536,-0.4598 0.9927,-0.8076 1.3271,-1.281 h -2.3093 c -0.1406,0 -0.2773,-0.0195 -0.4062,-0.0558 z m -3.754,2.9871 c -1.1579,0 -1.9448,-0.4838 -2.8995,-0.9941 l -0.4142,0.58 c 1.8601,1.2461 3.0065,1.4559 5.154,0.8461 1.1817,-0.3347 2.4511,-0.7693 3.7083,-0.7645 0.3172,0.002 0.8546,0.0264 1.089,-0.0294 0.6466,-0.154 1.6952,-0.8536 2.0705,-1.2847 l 0.9833,-1.2946 c -0.1338,-0.0643 -0.9856,-0.2741 -1.201,-0.3314 -0.2798,0.1877 -0.677,0.798 -1.2578,0.9372 -1.2999,0.3107 -1.334,0.9881 -2.3592,1.3272 -0.4695,0.1553 -0.9171,0.0292 -1.3224,0.1278 -0.2061,0.0505 -0.3631,0.104 -0.5859,0.1596 -0.7977,0.1998 -2.3709,0.7208 -2.9651,0.7208 z m -42.1631,-23.987 c 0.0159,0.1896 0.5409,1.1653 0.6628,1.4082 0.2534,-0.0209 2.8463,-1.0119 3.2669,-1.165 l 1.3051,-0.4759 c 0.3359,-0.1171 0.3254,-0.1202 0.6049,-0.3059 0,-0.7061 -0.1996,-1.7008 -0.633,-2.1424 l -0.4853,-0.4261 c -0.0779,0 -0.4943,0.3019 -0.5882,0.3646 l -2.0386,1.3578 c -0.3107,0.2114 -1.9148,1.3368 -2.0946,1.3847 z m 48.2928,24.1532 c -1.9009,0 -1.1347,-0.1594 -3.2307,0.4141 -0.3092,0.0848 -0.4804,0.1403 -0.7455,0.29 0.0661,0.2472 0.8501,0.3713 1.3422,0.4243 h 0.0899 c 0.1046,0 0.2066,0.0108 0.3053,0.0312 1.093,-0.008 1.8408,-0.3484 2.7178,-0.5978 0.8198,-0.233 1.8978,-0.4811 2.9169,-0.4788 1.1829,0.002 1.4448,0.003 2.5628,-0.8342 0.3053,-0.2288 1.0468,-0.9253 1.2659,-1.2614 l 0.3135,-0.5562 -1.2841,-0.3317 c -0.096,0.3612 -0.8254,0.868 -1.2778,1.0007 -0.832,0.2438 -1.275,-0.1704 -2.2436,0.5729 -0.3688,0.2831 -0.4876,0.4671 -0.98,0.7599 -0.4546,0.271 -1.0482,0.567 -1.7526,0.567 z M 352.1018,94.8886 c 0,-0.1788 -0.005,-0.1488 -0.0411,-0.3319 -0.008,0.002 -1.8964,0.1448 -2.3593,0.2095 -0.7602,0.1068 -1.5043,0.2236 -2.2779,0.3319 l -1.7345,0.2115 c -0.5411,0.0587 -1.5247,-0.0046 -1.6906,0.2562 -0.0227,0.0357 -0.3296,0.9672 -0.3296,0.997 -0.002,0.1689 0.2721,0.1083 0.4804,0.1074 1.5081,-0.0085 3.0555,-0.0394 4.5559,0.0411 l 2.6059,-0.0034 c 0.4226,-0.0425 0.43,-0.2891 0.5567,-0.7279 0.0893,-0.3096 0.2341,-0.7328 0.2341,-1.0914 z m -25.4304,-5.5511 c 0.0484,-0.2072 0.1729,-0.4164 0.2542,-0.6156 l 0.5089,-1.2317 c 0.0844,-0.2222 0.1559,-0.4048 0.2432,-0.627 0.1689,-0.432 0.3007,-0.8462 0.4484,-1.2909 l 0.409,-1.3723 c -0.1666,-0.045 -0.3211,-0.1933 -0.5136,-0.2729 -0.2134,-0.0888 -0.3591,-0.1491 -0.5686,-0.2197 -0.1882,-0.0482 -1.4426,-0.33 -1.7039,-0.2228 -0.1624,0.066 -0.1242,0.2398 -0.1843,0.6446 l -0.7095,4.8081 c -0.004,0.2015 0.1454,0.1559 0.3368,0.1808 0.1995,0.0258 0.3121,0.0448 0.5031,0.0769 0.1916,0.0326 0.2727,0.0425 0.472,0.0663 0.1482,0.0181 0.3413,0.0723 0.5043,0.0762 z m 25.6374,-4.5578 3.8103,-0.0825 c 0.3835,0 0.8254,0.0204 1.2013,0 0.4961,-0.0266 0.5414,-0.0414 1.1177,-0.0414 0.3954,0 0.8113,0.0134 1.203,9e-4 0.218,-0.0062 0.2809,-0.0465 0.5366,-0.0434 0.2126,0.0031 0.4343,0.0627 0.4471,-0.1128 l -0.1982,-1.0052 c -0.6488,0 -1.2977,0 -1.9465,0 l -2.8582,0.0417 c -0.379,-3e-4 -0.5953,0.0434 -0.9519,0.0411 h -1.4916 c -0.1873,0.0099 -0.2265,0.0425 -0.4544,0.0437 -1.5295,0.0017 -2.3553,-0.0063 -3.3692,-0.5678 -0.3955,-0.2194 -0.7861,-0.5494 -1.0732,-0.8742 -0.6248,-0.707 -0.0536,-0.4093 -1.1503,-0.8385 0.2999,0.6245 0.0604,0.5275 0.7974,1.3575 1.0712,1.2061 2.5761,2.0809 4.3801,2.0809 z m 28.868,35.0904 c 0.1746,0.0408 0.2307,0.0879 0.3988,0.14 0.3062,0.0958 0.7523,0.1644 1.1656,0.2016 0.2758,-0.4388 0.7583,-0.6982 1.2643,-0.6985 v -0.006 h 2.4032 c 0.9014,-0.2316 1.7694,-0.3679 2.8448,-0.4243 0.3734,-0.0193 0.4887,0.0127 0.7932,-0.0768 0.4617,-0.1355 0.9802,-0.544 1.3776,-0.8173 0.3719,-0.2562 1.4548,-1.7294 1.8054,-2.1716 -0.356,-0.0298 -1.0086,-0.288 -1.2192,-0.3183 -0.4136,-0.0593 -0.3489,0.6335 -1.5137,1.065 -0.212,0.0776 -0.5822,0.1647 -0.8691,0.1661 -0.3586,0.002 -0.5088,-0.061 -0.7651,0.2701 -0.4668,0.6035 -1.8807,1.4936 -2.5106,1.6319 -0.9573,0.2103 -1.7836,-0.0649 -3.6986,0.4434 -0.2787,0.0745 -0.5366,0.1468 -0.8091,0.227 -0.6298,0.1851 -0.6613,0.0924 -0.6675,0.3674 z m -59.144,1.7818 c 0,0.3028 0.176,0.6514 0.2573,0.944 0.08,0.2871 0.1792,0.667 0.2866,0.9558 0.5173,1.3859 1.7133,1.4737 3.0113,1.9593 l 1.8703,0.6149 0.9524,-1.4502 c 0.0363,-0.12 -0.5048,-0.567 -0.6525,-0.7144 -0.6795,-0.6803 -0.8513,-0.8382 -1.4179,-1.6472 -0.0536,-0.0768 -0.0862,-0.1437 -0.1539,-0.2183 l -0.4678,-0.2367 c -0.2361,-0.0374 -0.9541,0.4445 -2.5316,-0.2848 -0.1239,-0.0567 -0.2109,-0.1072 -0.3243,-0.1735 -0.2724,-0.1588 -0.3798,-0.288 -0.6499,-0.0661 -0.0749,0.0621 -0.18,0.2058 -0.18,0.3172 z m 15.3238,9.1143 c 0.6865,0.1598 1.0338,0.3095 1.8876,0.4325 l 2.1302,0.2302 c 0.1207,-0.5179 0.2475,-0.7823 -0.1817,-1.1024 -0.5168,-0.3849 -0.1712,0.0193 -0.8952,-0.6789 0.3203,-0.1539 0.9315,-0.2191 1.0891,-0.3194 0.1576,-0.0998 0.2032,-0.2427 0.2477,-0.4567 l 0.2373,-0.508 c 0.7166,0 0.8042,0.2186 0.8677,0.7061 0.0913,0.6962 0.0825,0.5888 0.4575,1.1166 0.8447,-0.197 0.9652,-1.6495 1.1594,-2.4449 l 0.2075,-0.9941 c -0.0879,-0.0417 -2.3681,-0.5383 -2.4852,-0.5383 -0.3342,0 -0.6398,0.5145 -0.9207,0.8192 -0.7495,0.8105 -1.6605,1.4508 -2.5645,2.0744 -0.5618,0.3881 -0.7203,0.699 -1.0423,1.2779 -0.0587,0.1051 -0.1678,0.2885 -0.1944,0.3858 z m -1.1591,-28.296 c 0.0802,0.6837 0.1409,0.7466 -0.025,1.4666 l -0.1822,0.6877 c 0.2511,0.021 0.5051,0.1315 0.7903,0.1624 l 1.7594,0.2285 c 0.4598,0.0635 2.3216,0.1746 2.7941,0.1879 0.209,0.006 0.2294,0.0409 0.4533,0.044 0.5987,0.007 1.5693,0.1193 1.9315,-0.0593 l 0.3476,-0.1907 c -0.0528,-0.1982 -0.2654,-0.2863 -0.404,-0.4238 L 342.4,103.2259 c -0.3093,-0.3124 -0.6282,-0.4527 -1.0009,-0.6973 -0.2929,-0.1917 -0.7997,-0.5315 -1.143,-0.5976 -0.1485,-0.028 -1.7577,0.2186 -2.0216,0.256 -0.3283,0.0476 -0.6668,0.089 -1.0194,0.1409 z m 13.4609,2.9829 0.089,-1.0712 c 0.0348,-0.3289 0.0493,-0.7464 0.1,-1.101 0.0258,-0.1755 0.0335,-0.3864 0.0516,-0.529 0.0817,-0.6446 0.1131,-0.8659 0.2455,-1.5355 0.1576,-0.7979 0.8342,-2.7303 1.129,-3.6349 -0.1729,-0.0915 -0.6786,-0.3665 -0.8892,-0.3883 -0.3007,-0.0306 -0.4652,0.4462 -0.5879,0.6919 -0.9255,1.8519 -1.8672,3.8912 -3.1524,5.4647 -0.1071,0.1312 -0.2069,0.2344 -0.3056,0.3568 -0.449,0.5582 -1.1438,1.1552 -1.7404,1.5738 -0.6197,0.4343 0.2171,0.2549 1.2497,0.2554 0.5253,0 0.7107,-0.0425 1.2011,-0.0413 0.4419,0.001 0.8835,-9e-4 1.3255,2e-4 0.4512,9e-4 0.7999,-0.0416 1.2841,-0.0416 z m 7.5379,5.0955 -0.1242,-1.4499 c -3.7885,0 -7.4687,0.0944 -11.2244,0.1244 -0.5391,0.004 -1.726,-0.496 -2.2838,-0.6984 -0.2288,-0.0831 -0.4159,-0.2577 -0.5621,-0.4326 l -0.4678,-0.5261 c -0.2746,-0.36 -0.4699,-0.4583 -0.8778,-1.1106 -0.2421,-0.3883 -0.1401,-0.3645 -0.4887,-0.5054 0,0.6999 0.46,1.2897 0.8461,1.8051 0.654,0.8731 1.7779,2.0837 2.7859,2.5163 0.5063,0.2171 1.5763,0.419 2.1586,0.4927 0.6902,0.0864 1.2158,0.0731 1.9142,0.0756 0.2744,0.001 0.3569,-0.043 0.6191,-0.0436 0.4416,-10e-4 0.8844,0.001 1.3266,0.001 0.4796,0 0.8456,-0.0431 1.2838,-0.0414 0.9213,0.003 1.6974,-0.0422 2.609,-0.0416 0.3861,3e-4 1.4885,-0.0391 1.9021,-0.0859 0.1752,-0.0196 0.409,-0.076 0.5834,-0.0797 z m -4.142,18.3121 c -0.4935,-0.1156 -1.6146,-0.4147 -2.0707,-0.4147 -0.5545,0 -0.9947,0.178 -1.2943,0.4453 l -0.6523,1.0877 c 0.1364,0.0658 0.377,0.1202 0.538,0.1658 1.556,0.4343 3.5014,1.0179 5.0482,1.4964 0.3564,0.1106 0.7569,0.2254 1.1234,0.3266 l 2.2777,0.663 c 0.0459,-0.197 0.352,-0.7277 0.3214,-1.1081 -0.0403,-0.4901 -0.1976,-0.7064 -0.3376,-1.1131 l -0.7288,-2.1705 -4.1836,-0.0414 c 0,0.2897 -0.0414,0.3957 -0.0414,0.663 z m 24.6849,-14.9145 c -0.646,0 -1.095,-0.3532 -1.497,-0.4915 l -1.485,-0.4207 c -0.3904,-0.0535 -1.0143,0.0786 -1.3536,0.2623 -0.7897,0.4266 -1.4683,1.3481 -2.0551,2.0457 -0.0601,0.072 -0.1026,0.0998 -0.1633,0.1681 -0.8583,0.9666 -0.6933,0.8547 -2.2603,0.6656 l -1.1254,-0.1582 0.0825,1.9055 c 0.1911,0.0447 0.6486,0.2466 0.9383,0.3047 0.9555,0.1944 1.7946,0.2792 2.5954,-0.3742 0.6551,-0.5338 1.3884,-1.5239 1.9094,-2.1917 0.0635,-0.0811 0.1389,-0.1854 0.201,-0.2543 0.3855,-0.4266 0.845,-0.3073 1.3022,-0.1236 0.2223,0.089 0.3977,0.1613 0.6211,0.2489 0.4408,0.1735 1.029,0.4017 1.5032,0.4017 0.4564,0 1.2246,-0.4468 1.8683,-0.972 -0.3501,-0.2747 -0.5751,-0.7016 -0.5751,-1.181 v -0.007 c -0.1659,0.1031 -0.3422,0.1717 -0.5066,0.1717 z M 344.5637,81.2999 c 0.0822,0.6545 0.1357,0.8201 -0.0233,1.5095 -0.1224,0.5309 -0.2877,0.8214 -0.0692,1.0686 0.1174,0.1324 0.1228,0.051 0.1361,0.2784 0.0164,0.2985 0.0394,0.502 0.0391,0.8305 -3e-4,0.2724 -0.0127,0.5511 0.0238,0.8051 0.0176,0.1216 0.006,0.2786 0.0338,0.3801 l 0.2324,0.2236 c 0.0774,0.0312 0.8062,-0.0634 0.8124,-0.0623 l 0.4298,0.3107 c 0,0.8866 -0.072,1.148 -0.2067,1.989 1.3221,0.2639 1.6716,-0.7279 1.8726,-0.8611 l 1.7305,-0.7135 h 0.3314 c 0.8067,0 0.788,0.5292 0.2404,-1.6906 -0.1089,-0.4425 -0.203,-0.6171 -0.5857,-0.8226 -1.0301,-0.5536 -1.6497,-1.0236 -2.3351,-1.9726 -0.2118,-0.2929 -0.3311,-0.6256 -0.5097,-0.9403 -0.2166,-0.3807 -0.3524,-0.3504 -1.0755,-0.3744 -0.5054,-0.0156 -0.8487,0.0419 -1.0771,0.0419 z M 344.5226,94.93 c 1.2812,0 2.5316,-0.231 3.7754,-0.4068 1.1452,-0.1627 2.5676,-0.3126 3.7627,-0.4626 0.1508,-0.3152 0.0202,-1.2424 -0.0414,-1.6169 -0.0992,-0.6015 -0.5777,-2.2719 -1.108,-2.6203 l -1.3363,-0.5278 c -0.3126,-0.0595 -1.0034,0.0961 -1.3079,0.2239 -0.5624,0.237 -0.7639,0.4598 -1.1035,0.8439 -0.0978,0.1106 -0.1905,0.2616 -0.2724,0.3903 -0.1772,0.2758 -0.3416,0.5423 -0.5074,0.8187 -0.076,0.1273 -0.1545,0.2426 -0.2384,0.3827 -0.3589,0.5955 -0.9094,1.4589 -1.2093,2.0633 -0.0742,0.1499 -0.14,0.2801 -0.2205,0.4419 -0.0663,0.1307 -0.182,0.3348 -0.193,0.4697 z m -3.2721,6.8358 c 0.0496,0.1873 0.2325,0.2548 0.3994,0.3458 0.868,0.4694 1.1087,0.824 1.6611,1.4046 0.1264,0.1335 0.2421,0.2772 0.3592,0.4277 l 0.7693,0.7637 c 0.4246,-0.0995 1.4845,-1.2989 1.8323,-1.6892 0.0689,-0.0771 0.1142,-0.1443 0.1843,-0.2302 l 0.4929,-0.6664 c 0.0729,-0.1057 0.1049,-0.1361 0.1749,-0.2401 0.5457,-0.8028 1.5956,-2.7167 1.982,-3.5683 l 0.4691,-1.146 -5.1772,-0.0417 c -0.0124,0.1528 -0.1964,0.5196 -0.2664,0.6869 -0.2892,0.6911 -0.722,1.7107 -1.0914,2.3045 -0.3713,0.5964 -1.0343,1.6487 -1.7895,1.6487 z m -12.757,15.2458 c 1.1885,0.2378 1.5398,0.2934 2.7932,-0.2302 0.6979,-0.2922 1.9001,-0.9362 2.5586,-1.377 0.3932,-0.2634 0.7673,-0.5582 1.1197,-0.8691 0.261,-0.2291 0.3004,-0.3416 0.4555,-0.4967 0.3719,-0.3719 1.0392,-1.3543 1.205,-1.7773 l 0.8972,-3.0795 c 0.0283,-0.1999 -0.0349,-1.3074 -0.0839,-1.4942 -0.0448,-0.1678 -0.0122,-0.1108 -0.1259,-0.0913 -0.3064,0.0536 -2.2703,0.7246 -2.6019,0.8442 -1.4732,0.5341 -3.2187,1.4111 -3.7794,2.9721 -0.1622,0.4527 -0.307,0.91 -0.5182,1.3465 l -0.3932,0.8495 c -0.2114,0.5242 -1.5174,2.9767 -1.5267,3.403 z m 0.9113,0.663 c -0.4583,0 -0.968,-0.1814 -1.2013,-0.2072 -0.1341,-0.0153 -0.3008,0.4204 -0.4158,0.6194 l -1.3785,2.5155 c -0.3595,0.8095 -0.2177,0.7058 0.4929,1.6477 l 0.7948,0.9865 c 0.2146,0.2432 0.6483,0.6789 0.904,0.8773 0.1599,0.1242 0.3118,0.2719 0.4623,0.4062 l 0.5074,0.4048 c 0.1574,-0.2347 0.2991,-0.345 0.487,-0.5485 0.6466,-0.6982 1.516,-1.7646 2.2145,-2.5489 l 1.0964,-1.2654 c 0.0649,-0.0768 0.0575,-0.0853 0.127,-0.163 l 0.9799,-1.1324 c 0.1559,-0.2007 0.3218,-0.358 0.4743,-0.5618 0.0748,-0.1001 0.1576,-0.2056 0.2191,-0.3192 0.1857,-0.3405 1.1588,-3.4178 1.1528,-3.6525 l -0.2069,-0.663 c -0.1482,0.0397 -0.419,0.3988 -0.6517,0.6324 -1.0343,1.0398 -2.622,1.9123 -3.9696,2.4511 -0.6208,0.2489 -1.3913,0.521 -2.0886,0.521 z m 8.4909,-10.1911 c 0.1905,2.1974 0.0805,2.9169 -0.8833,5.0406 l -0.4422,1.0905 0.2072,0.8285 c 0.4,0 3.7511,-0.2806 4.2719,-0.367 1.4743,-0.2455 2.3723,-0.5114 3.7893,-0.9321 0.8484,-0.252 2.922,-1.0094 3.6111,-1.5253 l 0.2554,-0.2412 c -0.1435,-0.0698 -2.2133,-0.2313 -2.9024,-0.3688 -0.4867,-0.0978 -0.8433,-0.1772 -1.2631,-0.3526 -0.4867,-0.2041 -0.8587,-0.476 -1.2286,-0.8017 -0.0793,-0.0703 -0.1301,-0.1321 -0.2066,-0.2078 -0.097,-0.0966 -0.1276,-0.1043 -0.2265,-0.1873 -0.1259,-0.1052 -0.8569,-0.9125 -0.9899,-1.082 -0.422,-0.5403 -0.64,-0.9034 -0.9419,-1.5015 L 340.67,106.323 c -0.2673,0.0627 -2.5665,1.0213 -2.7743,1.1605 z m 8.5323,-26.6394 c 0.608,0 1.8686,0.0207 2.3661,-0.0354 1.1265,-0.1265 1.2554,0.3302 1.1602,-0.5089 l -0.0587,-1.0187 c -0.1066,-0.7937 -0.1199,-1.7793 -0.2265,-2.5912 -0.0252,-0.1961 -0.0394,-0.4827 -0.0507,-0.6528 -0.015,-0.2211 -0.0247,-0.4184 -0.0496,-0.6554 -0.0992,-0.9507 -0.3144,-2.9369 -0.3674,-3.8993 -0.0609,-1.0979 -0.2956,-2.7037 -0.373,-3.8529 -0.087,-1.296 -0.3969,-3.7593 -0.578,-5.0972 h -0.2906 c -0.1766,0.2645 -0.2128,0.6741 -0.2727,1.012 -0.3103,1.7634 -0.7075,3.7465 -1.0561,5.4892 -0.1968,0.9845 -0.6591,3.4765 -0.6605,4.5593 -0.001,0.8699 10e-4,1.7407 10e-4,2.6113 0,0.8745 -0.0422,1.663 -0.0414,2.5684 6e-4,1.3352 -0.3166,2.0716 0.4975,2.0716 z m 6.1294,14.2098 c 0.6043,0.3209 4.2964,1.631 4.9444,1.849 0.4476,0.1505 0.8425,0.2574 1.2943,0.4045 0.4343,0.1406 0.864,0.2702 1.3159,0.3821 0.3362,0.0686 2.8556,0.4723 3.09,0.4723 1.7779,0 3.401,-0.4774 5.1378,-0.3334 0.2265,0.0179 0.4093,-0.0073 0.6367,0.0253 0.2239,0.0326 0.4246,0.0431 0.6412,0.0626 0.9071,0.0828 2.4596,0.5267 3.3174,0.8666 l 2.0114,0.7636 0.007,0.0026 0.0397,-0.0202 c 0.2115,-0.1034 0.4354,-0.1522 0.6562,-0.1522 v -0.0062 h 3.3222 c 0.6426,0 1.1909,0.4042 1.4046,0.9723 l 0.4034,0.9334 c 0.3217,0.0751 0.5482,0.15 0.6049,0.1576 0.2109,0 0.4382,-0.1159 0.6375,-0.2707 l 0.3883,-0.8901 c 0.0695,-0.159 0.1633,-0.2996 0.275,-0.4201 l 0.1896,-0.8628 c 0.057,-0.5239 -0.9496,-0.5635 -1.3841,-0.6449 -1.855,-0.3515 -3.1935,-0.5397 -5.0817,-1.0899 -1.9372,-0.565 -2.6025,-1.0049 -4.7812,-1.3499 -0.652,-0.1029 -1.2756,-0.1338 -1.923,-0.1471 l -1.7164,0.1071 c -1.1446,0.1585 -3.9863,0.5863 -4.828,0.639 -1.112,0.0697 -2.5871,-0.0916 -3.6002,-0.2937 -0.794,-0.1582 -1.533,-0.3923 -2.3145,-0.5851 -0.7356,-0.1802 -1.51,-0.4124 -2.2536,-0.6043 -0.386,-0.0989 -0.7486,-0.1999 -1.1358,-0.3132 -0.5049,-0.1474 -0.6727,-0.1755 -1.1744,-0.2753 -0.0862,0.1797 -0.0493,0.4649 -0.1244,0.6211 z m 9.36,-0.1239 c -1.5183,0 -5.495,-0.523 -7.098,-0.8949 -0.7957,-0.1851 -1.3484,-0.2999 -2.1376,-0.4303 0.0357,0.4374 0.5766,0.5151 0.8872,0.6035 1.1852,0.3354 2.4838,0.6131 3.6777,0.9201 0.815,0.2095 1.6177,0.4054 2.4511,0.6135 l 2.6759,0.3894 c 0.7042,0.0513 5.5922,-0.7194 7.1646,-0.7871 2.179,-0.0936 3.8996,0.4555 5.9479,0.9697 1.6042,0.4028 3.0855,0.8597 4.7878,1.2594 0.6154,0.1446 3.0597,0.5054 3.5949,0.5054 0.3798,0 0.6102,-0.3118 0.7296,-0.5969 0.0808,-0.2501 0.2647,-1.0004 0.2647,-1.2677 0,-0.2409 -0.0943,-0.6755 -0.2106,-1.0695 h -7.5282 c -0.8283,0 -1.5001,-0.6718 -1.5001,-1.5001 v -0.1244 c -1.1787,-0.1945 -3.1099,-0.4961 -3.7245,-0.4961 -1.0601,0 -1.6103,0.1457 -2.5596,0.3818 -0.7847,0.1948 -1.5492,0.4283 -2.3525,0.6296 -1.7323,0.4334 -3.172,0.8946 -5.0703,0.8946 z m -9.5256,-2.9829 0.1656,1.1602 c 0.132,0.0029 0.3719,0.0788 0.5487,0.1137 l 3.9538,0.7265 c 1.372,0.2308 3.5476,0.5267 4.9819,0.5267 1.4142,0 3.6907,-0.5899 5.0448,-0.9612 0.7727,-0.2121 1.5662,-0.3881 2.3859,-0.5959 l 2.6751,-0.3489 c 0.6406,-0.0411 2.3244,0.2511 3.4767,0.4552 v -2.8156 c -1.3734,-0.1953 -2.7615,-0.415 -4.1389,-0.415 -2.3235,0 -4.4322,1.1231 -6.5018,2.0307 -0.9403,0.4128 -2.3114,0.8124 -3.397,0.8697 -0.2498,0.0128 -0.47,0.0198 -0.6702,0.0366 l -4.0405,-0.2557 c -1.0924,-0.1429 -1.9766,-0.2013 -3.1821,-0.3796 z m -50.5712,26.9289 c 0,0.2333 0.3118,2.3746 0.3832,2.6416 l 0.114,0.3415 c 0.6389,-0.0532 2.8757,-0.998 3.2187,-1.421 l 0.5502,-1.0235 c 0.0258,-0.1021 -0.001,-0.9154 -0.2585,-1.1501 l -0.6114,-0.5899 c 0,-0.7798 0.1392,-0.8095 0.826,-0.9558 0.2628,-0.0553 0.3708,-0.1208 0.5326,-0.2959 0.0794,-0.1236 0.3062,-0.6594 0.2566,-0.8201 l -0.7036,-1.0355 c -0.0405,-0.1301 0.8685,-1.5562 1.2728,-1.9584 l 1.165,-1.279 c 0.0519,-0.0644 0.0833,-0.0896 0.1355,-0.1537 0.0969,-0.1196 0.1624,-0.1936 0.2611,-0.3194 0.5544,-0.7101 0.3483,-0.5009 1.0179,-1.1781 0.3399,0 0.54,0.7724 0.6854,1.1367 0.1828,0.4575 0.3645,0.873 0.5207,1.3433 0.2798,0.8425 0.5171,1.8454 0.8487,2.8386 0.1633,0.4896 1.008,2.8704 1.2215,3.3767 0.1063,0.2542 0.21,0.3308 0.4147,0.4963 l 1.1129,0.7515 h 0.2072 c 0,-1.4786 0.1148,-2.6643 0.3756,-3.9328 0.1156,-0.5633 0.284,-1.0948 0.4572,-1.6141 0.1361,-0.4062 0.4317,-1.0414 0.6168,-1.455 -0.6783,-0.4538 -0.3158,-0.1735 -0.7971,-0.6945 -0.3345,-0.3611 -0.7909,-0.8166 -1.0956,-1.1817 -0.3373,-0.4028 -0.733,-0.817 -1.0491,-1.2303 -0.3671,-0.4813 -0.9516,-1.2549 -1.2549,-1.7688 -0.1037,-0.1755 -0.1873,-0.282 -0.29,-0.4552 -0.119,-0.2007 -0.4456,-0.7722 -0.6185,-0.8725 -0.7976,-0.4629 -2.1492,-0.2087 -2.6884,0.5212 l -1.1667,2.1884 c -1.0511,1.9721 -2.1444,3.4398 -3.4594,5.1979 -0.9184,1.2279 -0.7869,1.3694 -1.3133,2.7462 -0.1927,0.5034 -0.3778,0.8898 -0.6803,1.3087 -0.1018,0.1404 -0.2075,0.2588 -0.2075,0.4967 z m 4.2248,5.7588 c 0,0.8555 0.4385,1.2096 0.9861,1.5404 l 4.4524,2.5072 c 0.739,0.413 1.6934,0.9675 2.3817,1.429 l 1.1591,0.7872 c 1.0241,0.6417 2.0735,0.2919 3.0466,0.7645 1.3315,0.6468 0.5287,0.4518 2.5555,0.1825 0.6137,-0.0811 1.0196,-0.1701 1.6129,-0.3342 -0.0196,-0.2316 -0.4425,-0.9479 -0.5655,-1.1738 -0.2665,-0.4879 -0.8507,-1.3329 -1.3218,-1.7022 -0.1128,-0.0876 -0.127,-0.1242 -0.2483,-0.2075 l -1.2606,-0.4788 c -0.3526,0 -0.6735,0.1208 -0.9488,0.2106 -0.3214,0.1049 -0.3262,0.2514 -0.5006,0.6591 l -0.8654,-0.1282 c -0.83,-0.138 -0.4416,-0.8784 -0.807,-1.182 l -0.6888,-0.3464 c -0.2475,-0.0592 -0.6384,0.0349 -0.8592,0.3008 l -0.3827,0.4447 c -0.3645,0 -1.8952,-1.0343 -2.2552,-1.3076 -0.008,-0.007 -1.6523,-1.3218 -1.7096,-1.3969 l -0.1774,-0.2784 c 0.576,-0.2769 2.7629,-0.2628 3.5642,-0.3299 0.1367,-0.0105 0.3124,-0.002 0.453,-0.002 0.6469,8e-4 0.9561,-0.0434 1.6997,-0.04 0.3036,0.001 0.487,-0.0434 0.8274,-0.0428 0.5834,0.001 1.0996,-0.0224 1.6991,-0.0403 0.2999,-0.008 0.2937,-0.0425 0.8266,-0.0422 1.9148,0 1.7722,-0.002 3.314,-0.9533 0,-0.3623 -0.4559,-0.3778 -0.7722,-0.4703 -1.3416,-0.3917 -1.6129,-0.5249 -2.8466,-0.9643 -0.517,-0.184 -2.3717,-0.9516 -2.6007,-1.2098 l -0.4902,-0.7946 -1.237,0.4615 c -1.0712,0.4399 -2.0565,0.8002 -3.136,1.2132 -0.2262,0.0873 -0.4056,0.1574 -0.6264,0.2441 -0.4368,0.1704 -0.8317,0.3019 -1.2671,0.4725 -0.4986,0.1942 -2.1475,0.7759 -2.4826,0.9961 -0.3328,0.2197 -0.5286,0.7824 -0.5286,1.2118 z m 69.5789,-38.2997 -0.3827,-0.0508 c -0.8203,-0.1088 -2.7856,-0.3163 -3.549,-0.3446 -1.2988,-0.0471 -3.0398,0.316 -4.1403,0.9552 -1.1505,0.6676 -1.9652,1.3264 -3.1215,2.0146 -0.5799,0.3453 -1.0139,0.6435 -1.6429,0.9255 -0.1372,0.0618 -0.2257,0.1055 -0.3779,0.1602 -0.2897,0.1046 -0.4419,0.172 -0.7996,0.2361 -0.5817,0.0734 -1.8913,0.1415 -2.5501,0.1415 -1.5511,0 -5.4164,-0.4851 -7.4557,-0.6631 0.0125,0.1466 0.3476,0.9661 0.4281,1.1464 0.2471,0.5536 0.231,0.591 0.8934,0.7222 0.8635,0.1724 2.0773,0.1857 2.8857,0.3033 0.324,0.0479 4.8699,0.4244 5.1421,0.3858 0.2225,-0.0311 0.5281,-0.011 0.7806,-0.0473 1.6509,-0.239 2.1694,-0.3671 3.6615,-1.1024 0.3524,-0.1732 0.7515,-0.3223 1.1311,-0.485 0.3387,-0.1151 5.0439,-1.2952 5.1655,-1.2952 0.6463,0 1.7496,0.1395 2.4191,0.2308 0.4728,0.0643 0.9862,0.1372 1.5126,0.2106 z m -59.1001,16.1762 c 0.6409,0.1494 0.8509,0.3744 1.0026,1.027 0.2285,0.9813 0.0507,0.6638 0.6956,1.3762 l 0.2727,-0.8036 c 0.4298,-1.5055 -0.0513,-0.3782 0.9695,-2.3871 l 0.373,0.0831 -0.138,0.2772 c -0.2418,0.4374 0.1227,0.6287 0.4453,0.5726 0.8138,-0.142 2.4125,-0.0207 3.2961,-0.0207 0.5658,-3e-4 1.1319,0 1.698,0 l 6.7921,0.0411 1.036,-0.0828 c 0.0442,-0.2222 0.0411,-0.1539 0.0411,-0.373 -0.3092,0 -0.4376,-0.0434 -0.7449,-0.042 -0.7229,0.004 -1.8017,0.0148 -2.4463,-0.0382 -0.9904,-0.0825 -2.3599,0.1136 -3.2874,-0.0267 -0.3194,-0.0479 -2.7289,-0.0175 -3.2547,-0.0173 -0.5094,0 -1.0956,-0.1 -1.5976,-0.0238 -0.7311,0.1106 -0.849,0.007 -1.3844,-0.2245 0.3789,-0.0884 -0.0128,-0.0354 0.4926,-0.0876 0.3886,-0.0397 0.576,-0.542 0.7622,-0.9779 0.279,-0.654 0.3878,-0.9848 0.9341,-1.3853 0.2262,-0.1664 0.4623,-0.3016 0.6794,-0.4805 0.2381,-0.197 0.4014,-0.318 0.6211,-0.5386 l 0.8181,-1.5015 c 0,-0.4989 -0.2798,-0.9842 -0.5026,-1.2784 -1.0661,-1.4083 -0.9428,-0.9011 -0.2256,-1.9361 0.3676,-0.5318 1.0224,-1.3493 1.4445,-1.9105 0.616,-0.819 0.6718,-0.9845 0.9822,-1.9179 L 322.5294,89.42 c -1.3578,-0.0745 -3.454,0.1233 -4.155,1.395 -0.3844,0.6964 -0.6645,1.6979 -0.8258,2.5299 -0.2792,1.4411 -0.1094,2.9038 -0.1536,4.3625 l -0.085,1.0746 c -0.1157,1.7116 -0.7784,3.3931 -0.7858,3.7293 z m 7.4134,-8.1613 c 0.1523,0.1755 0.33,0.2801 0.5273,0.4258 0.199,0.1471 0.3348,0.2668 0.485,0.4674 l 0.5204,1.427 v 0.4972 c 0,1.368 -0.4637,2.4605 -1.0077,3.5487 l -0.4833,1.0497 c 1.4828,0 2.8797,0.0411 4.3903,0.0411 l 3.3131,0.0419 c 0.5106,0 0.5653,6e-4 1.0772,0.0408 0.0661,-0.1366 0.2186,-0.6253 0.4895,-0.7528 l 1.0015,-0.241 0.7042,0.0411 c 0,-0.9589 -0.11,-1.3793 -0.3365,-2.1492 -0.3518,-1.1962 -0.6772,-2.452 -1.2376,-3.5677 -0.6387,-1.273 -1.6308,-2.3468 -2.7389,-3.2261 -0.8127,-0.6443 -2.0653,-1.4448 -3.0121,-1.7929 l -0.8756,-0.3254 c -0.1026,0.4396 -0.3362,0.917 -0.5244,1.2985 -0.6471,1.3068 -1.6659,2.2408 -2.2924,3.1759 z m 27.9159,2.9413 c 1.0279,0.5445 4.8475,2.5721 5.315,2.7623 l 6.1571,1.9602 c 0.4998,0.0782 1.9726,-0.2069 2.391,-0.2597 0.8595,-0.1085 2.1382,-0.1955 3.0345,-0.1955 1.0698,0 2.2587,0.331 3.219,0.716 1.1112,0.4447 1.6028,0.7721 2.5881,1.3887 0.39,0.244 0.7622,0.5198 1.1625,0.7512 l -1.4131,-2.8877 c -0.2789,-0.57 -0.161,-1.2317 0.246,-1.6716 l -1.1582,-0.4555 c -0.5063,-0.1826 -1.01,-0.3742 -1.5466,-0.5247 l -3.5529,-0.589 -5.2183,0.2899 c -1.9361,0.0536 -3.8055,-0.6726 -5.6089,-1.1843 -0.7784,-0.2205 -2.9688,-1.029 -3.7517,-1.343 l -1.2424,-0.4553 c -0.0423,0.5006 -0.4235,1.3244 -0.6211,1.698 z m 21.5368,-15.5359 c -1.3689,0 -2.7788,-0.0827 -4.1,-0.0827 -1.6155,0 -2.4021,0.3639 -3.5501,1.2138 -0.6857,0.5065 -1.2357,1.1579 -1.7828,1.7787 l -1.4091,1.5327 c -0.4223,0.4294 -1.1089,1.1265 -1.7067,1.317 l -4.1428,0.6621 c -0.9632,0.0766 -3.3015,-0.1102 -4.1828,-0.2072 -2.0546,-0.2253 -3.519,-1.1951 -4.8637,0.7699 -0.1605,0.2353 -0.2514,0.5015 -0.3552,0.7628 0.1106,-0.0289 0.4646,-0.2316 0.6078,-0.3039 0.7293,-0.3665 1.5165,-0.5074 2.2971,-0.2403 0.523,0.1794 0.9664,0.2256 1.5926,0.3135 1.1372,0.1596 2.2305,0.3044 3.3681,0.4002 0.5439,0.0457 1.2041,0.0961 1.7495,0.1562 0.1469,0.0162 0.2968,-0.0039 0.4434,0.0119 0.6814,0.076 2.637,0.1392 3.1787,0.0607 0.7322,-0.106 0.8504,-0.1409 1.5316,-0.3325 0.1395,-0.0391 0.2134,-0.0706 0.3367,-0.1185 2.0691,-0.8135 3.6567,-2.4778 5.7218,-3.3097 0.4603,-0.1851 0.9031,-0.3274 1.4471,-0.4578 l 1.7064,-0.1979 c 0.4249,0 0.8907,0.0527 1.323,0.0853 1.2313,0.0933 2.152,0.2464 3.0234,0.3186 v -4.3256 c -0.7625,0.1324 -1.5443,0.1927 -2.234,0.1927 z m -57.9844,36.5823 c 0,1.1386 0.0729,1.2594 0.6625,2.0299 0.0541,0.0705 0.0799,0.1091 0.155,0.1768 0.3957,0.3572 4.0553,1.7697 5.0304,2.0109 l 0.5304,0.1321 c 0,-0.2636 -0.0905,-0.3739 -0.148,-0.5975 -0.1245,-0.4845 -0.1315,-0.8059 0.2613,-1.1115 0.8419,-0.6536 0.5131,-0.1769 1.6025,0.1999 0.3894,0.1346 1.1038,0.3489 1.5145,0.3489 0.6562,0 0.6126,-0.2398 0.7092,-0.5338 0.1282,-0.3903 2.5869,-4.8529 3.0428,-5.864 0.0544,-0.1213 0.0538,-0.1049 0.0975,-0.1919 l 0.7075,-1.5296 c 0.14,-0.3155 1.4009,-2.9386 1.3445,-3.0495 -0.0522,-0.1037 -0.0803,-0.0482 -0.201,0.002 -0.9153,0.3756 -3.1204,1.1393 -4.0606,1.3734 -0.3396,0.0848 -0.6738,0.1919 -0.9712,0.313 -0.3013,0.1218 -0.6327,0.223 -0.9635,0.3206 -0.343,0.1006 -0.6386,0.1527 -1.0241,0.2177 -0.3586,0.0612 -0.7532,0.0793 -1.143,0.1411 -1.1834,0.1882 -2.0372,0.3501 -3.196,0.6146 l -2.1178,0.4498 c -1.3742,0.275 -1.1443,0.3048 -1.5398,2.2717 -0.0728,0.3617 -0.1284,0.7237 -0.1726,1.112 -0.0428,0.3765 -0.1205,0.7441 -0.1205,1.1637 z m 1.2011,-4.9306 c 0.6882,0 3.1756,-0.6293 4.1102,-0.8184 1.6251,-0.3285 2.3916,-0.3203 4.1981,-0.7724 0.4703,-0.1177 0.8473,-0.2517 1.2645,-0.3923 0.4156,-0.1401 0.8674,-0.2517 1.2833,-0.3736 0.8991,-0.262 1.6347,-0.5208 2.4681,-0.8453 0.7965,-0.3104 1.0395,-0.4604 1.7158,-0.7699 l 1.6373,-0.847 c 0.699,-0.3518 1.6067,-0.726 2.3482,-0.9658 0.5729,-0.1856 0.7101,-0.1633 1.2272,-0.4289 -0.1596,-0.0433 -0.3331,-0.1987 -0.455,-0.2902 -0.4088,-0.3079 -0.8595,-0.6166 -1.0519,-1.1855 -0.3504,-1.0375 -0.4987,-0.873 -2.0132,-0.8861 -0.851,-0.008 -1.5653,-1.0233 -2.101,-1.5446 -0.3856,-0.3753 -0.7852,-0.32 -1.5021,-0.32 -0.6075,0 -1.215,0 -1.8224,0 -0.6483,0 -1.1543,-0.0417 -1.781,-0.0417 -0.599,0 -1.2288,0.0193 -1.8236,0.001 -0.5442,-0.0156 -0.8946,-0.1998 -1.3079,0.4295 -0.2415,0.3671 -0.4731,0.7461 -0.7322,1.091 l -0.7503,1.0718 c -0.5862,0.849 -1.2994,1.7379 -1.9301,2.6269 -0.5561,0.7835 -0.9388,1.4281 -1.4417,2.2036 -0.1139,0.1766 -0.2472,0.3924 -0.3399,0.5718 -0.2262,0.4394 -0.5686,0.9983 -0.7914,1.4862 -0.1052,0.2296 -0.3912,0.7835 -0.409,0.9995 z"
         style="fill:#007dbe;fill-opacity:1;fill-rule:evenodd;stroke:#000000;stroke-width:3.77952761;stroke-linecap:round;stroke-linejoin:round;stroke-dasharray:none;stroke-opacity:0;stroke-miterlimit:4"
         id="path930" />
      <path
         d="m 449.0515,115.6003 v -1.8188 h -1.7356 l -3.7616,-5.6089 c -0.074,-0.1074 -0.1877,-0.3472 -0.3444,-0.7129 h -0.0428 v 6.3218 h -2.9106 v -12.9109 h 2.9106 v 6.1035 h 0.0428 c 0.074,-0.1689 0.1936,-0.4087 0.3628,-0.7191 l 3.5649,-5.3844 h 3.4667 l -4.5022,6.1588 3.4024,4.6987 h 1.8723 v 3.8722 z m -71.024,-5.9531 h 1.7184 v -0.4051 l -4.0967,-8.3715 h 3.3222 l 2.0807,4.8158 c 0.0368,0.0893 0.1352,0.4425 0.295,1.0542 h 0.0369 c 0.0799,-0.4335 0.1721,-0.7713 0.2798,-1.0174 l 2.1175,-4.8526 h 3.0764 l -4.2043,8.3194 v 0.4572 h 1.972 v 2.3253 h -1.972 v 1.809 h -2.9075 v -1.809 h -1.7184 z m 133.5274,11.3604 v 2.2496 h -1.0786 v 8.4118 h 1.0786 v 2.2496 h -5.0678 v -2.2496 h 1.0786 v -8.4118 h -1.0786 v -2.2496 z m -5.7254,2.3664 h -3.6851 v 10.5446 h -2.9165 V 123.374 h -3.6632 v -2.3664 h 10.2648 z m -11.1379,10.5446 h -7.7448 v -12.911 h 7.4466 v 2.3664 h -4.536 v 2.8735 h 4.2225 v 2.3573 h -4.2225 v 2.9534 h 4.8342 z m -9.481,-10.5446 h -3.6851 v 10.5446 h -2.9166 V 123.374 h -3.6632 v -2.3664 h 10.2649 z m -12.0292,10.5446 h -2.7476 v -7.0963 c 0,-0.8144 0.0309,-1.512 0.0922,-2.0868 h -0.0553 c -0.1259,0.2457 -0.341,0.6023 -0.6483,1.0695 l -5.3291,8.1136 h -2.9291 v -12.911 h 2.7476 v 7.1394 c 0,0.8818 -0.0246,1.4751 -0.0705,1.7733 h 0.0337 c 0.0306,-0.0709 0.252,-0.4212 0.667,-1.0542 l 5.123,-7.8585 h 3.1164 z m -13.8668,-0.4578 c -0.9402,0.4547 -2.1727,0.682 -3.6909,0.682 -1.9792,0 -3.5374,-0.5808 -4.6715,-1.7456 -1.137,-1.1647 -1.7025,-2.7167 -1.7025,-4.6559 0,-2.0653 0.6361,-3.7403 1.9114,-5.025 1.2756,-1.2846 2.9321,-1.9269 4.9666,-1.9269 1.26,0 2.3235,0.1598 3.1869,0.4793 v 2.7998 c -0.8634,-0.5162 -1.847,-0.7745 -2.9534,-0.7745 -1.2109,0 -2.1912,0.3813 -2.935,1.1433 -0.7438,0.7622 -1.1157,1.7949 -1.1157,3.0979 0,1.2479 0.3504,2.2437 1.0542,2.9844 0.7007,0.7407 1.6472,1.1126 2.8367,1.1126 1.1341,0 2.173,-0.2767 3.1132,-0.83 z m -17.604,-3.9892 v 4.447 H 438.8 v -12.911 h 4.5579 c 3.2547,0 4.8804,1.3706 4.8804,4.1151 0,1.2971 -0.4672,2.3451 -1.4015,3.147 -0.9343,0.7991 -2.179,1.2019 -3.7403,1.2019 z m 0,-6.2328 v 4.026 h 1.1433 c 1.5488,0 2.3232,-0.6792 2.3232,-2.0344 0,-1.3278 -0.7744,-1.9916 -2.3232,-1.9916 z m -4.979,10.6798 h -7.7448 v -12.911 h 7.4466 v 2.3664 h -4.536 v 2.8735 h 4.2225 v 2.3573 h -4.2225 v 2.9534 h 4.8342 z m -19.5679,0 v -12.911 h 4.7022 c 1.4414,0 2.5477,0.2642 3.3224,0.7929 0.7745,0.5255 1.1617,1.2724 1.1617,2.2311 0,0.6976 -0.2367,1.3062 -0.707,1.8287 -0.4731,0.5224 -1.0726,0.8852 -1.8071,1.0879 v 0.0368 c 0.919,0.114 1.6535,0.455 2.2037,1.0174 0.5471,0.5655 0.8237,1.2509 0.8237,2.0622 0,1.1832 -0.4243,2.1206 -1.2693,2.8151 -0.8484,0.6916 -2.0038,1.0389 -3.4668,1.0389 z m 2.9107,-10.7688 v 3.0608 h 1.2784 c 0.5992,0 1.0726,-0.1443 1.4167,-0.4362 0.3473,-0.292 0.5194,-0.6917 0.5194,-1.2019 0,-0.9496 -0.7098,-1.4227 -2.1266,-1.4227 z m 0,5.2214 v 3.4052 h 1.5763 c 0.6701,0 1.1988,-0.1567 1.5798,-0.4702 0.3812,-0.3104 0.5717,-0.7376 0.5717,-1.2785 0,-0.5161 -0.1874,-0.9189 -0.5624,-1.214 -0.3781,-0.2948 -0.9006,-0.4425 -1.5735,-0.4425 z m -5.8703,5.5474 h -2.7476 v -7.0963 c 0,-0.8144 0.0309,-1.512 0.0921,-2.0868 h -0.0553 c -0.1258,0.2457 -0.341,0.6023 -0.6483,1.0695 l -5.3291,8.1136 h -2.929 v -12.911 h 2.7476 v 7.1394 c 0,0.8818 -0.0247,1.4751 -0.0706,1.7733 h 0.0337 c 0.0307,-0.0709 0.252,-0.4212 0.667,-1.0542 l 5.1231,-7.8585 h 3.1164 z m -14.5707,0 h -2.9165 V 128.66 h -5.3476 v 5.2586 h -2.9106 v -12.911 h 2.9106 v 5.1509 h 5.3476 v -5.1509 h 2.9165 z m -12.5668,-12.911 -4.0445,8.8512 c -0.756,1.6566 -1.4692,2.7845 -2.1421,3.3837 -0.6729,0.6024 -1.5245,0.9003 -2.5569,0.9003 -0.6854,0 -1.2418,-0.0981 -1.6749,-0.2948 v -2.6586 c 0.4915,0.3197 1.0017,0.4796 1.5304,0.4796 0.7285,0 1.3677,-0.5902 1.9176,-1.7671 l -4.2412,-8.8943 h 3.3163 l 2.1421,5.1662 c 0.1259,0.3135 0.2242,0.6638 0.2979,1.0542 h 0.0156 c 0.0675,-0.3226 0.169,-0.6639 0.3073,-1.0174 l 2.0713,-5.203 z m 50.2274,-7.2261 h -2.8891 v -12.9109 h 2.8891 z m -13.6057,0 v -12.9109 h 2.9106 v 4.8342 h 1.8992 c 3.1164,0 4.6715,1.2662 4.6715,3.7987 0,1.3521 -0.4181,2.4032 -1.26,3.1533 -0.8391,0.7497 -2.0254,1.1247 -3.5561,1.1247 z m 2.9106,-5.8793 v 3.6635 h 1.3121 c 1.4661,0 2.1974,-0.6208 2.1974,-1.8624 0,-1.2019 -0.7129,-1.8011 -2.1421,-1.8011 z m -4.6469,-4.6653 h -3.685 v 10.5446 h -2.9166 v -10.5446 h -3.6632 v -2.3663 h 10.2648 z m -11.1038,0 h -3.6851 v 10.5446 h -2.9165 v -10.5446 h -3.6633 v -2.3663 h 10.2649 z m -12.0229,10.5446 h -2.9075 v -10.4893 h -2.5846 c -0.6945,4.9451 -1.3459,7.96 -1.9514,9.0448 -0.6086,1.082 -1.5276,1.626 -2.7661,1.626 -0.5224,0 -1.0448,-0.0862 -1.5675,-0.252 v -2.3236 c 0.3504,0.1199 0.6486,0.1783 0.9006,0.1783 0.2457,0 0.464,-0.0768 0.6545,-0.2336 0.1876,-0.1567 0.3965,-0.5686 0.6239,-1.2415 0.2307,-0.6733 0.504,-1.8318 0.8237,-3.4821 0.3226,-1.6475 0.6302,-3.5589 0.925,-5.7379 h 7.8494 z m 56.3278,-20.137 h -2.9166 v -5.0156 h -0.7744 c -0.7191,0 -1.3093,0.5471 -1.764,1.6381 l -1.4046,3.3775 h -3.3593 l 1.8102,-3.854 c 0.5102,-1.0848 1.1804,-1.7609 2.0069,-2.0253 v -0.0369 c -1.9023,-0.4487 -2.8519,-1.552 -2.8519,-3.3038 0,-1.1585 0.4178,-2.0622 1.26,-2.7136 0.8391,-0.6517 2.0222,-0.9774 3.5467,-0.9774 h 4.447 z m -2.9166,-7.1946 v -3.5005 h -1.214 c -1.3644,0 -2.0435,0.5655 -2.0435,1.6994 0,0.5411 0.1842,0.9773 0.553,1.3062 0.3688,0.3288 0.8668,0.4949 1.4905,0.4949 z m -8.8942,7.1946 h -2.7477 v -7.0962 c 0,-0.8144 0.0309,-1.512 0.0922,-2.0869 h -0.0553 c -0.1259,0.2457 -0.341,0.6023 -0.6483,1.0695 l -5.3291,8.1136 h -2.9291 v -12.911 h 2.7477 v 7.1394 c 0,0.8818 -0.0247,1.4751 -0.0706,1.7733 h 0.0337 c 0.0306,-0.0708 0.252,-0.4212 0.667,-1.0542 l 5.1231,-7.8585 h 3.1164 z M 420.5968,93.168 v -2.5478 c 1.0264,0.6886 2.1943,1.0358 3.5036,1.0358 1.6194,0 2.431,-0.5871 2.431,-1.7578 0,-1.1894 -0.8915,-1.7827 -2.6739,-1.7827 h -1.6597 v -2.179 h 1.586 c 1.5857,0 2.3788,-0.5561 2.3788,-1.675 0,-1.0201 -0.6763,-1.5304 -2.0285,-1.5304 -0.9652,0 -1.9975,0.3073 -3.0979,0.919 v -2.3757 c 1.1063,-0.5071 2.3264,-0.7591 3.6666,-0.7591 1.4105,0 2.5047,0.2951 3.2822,0.879 0.7776,0.5871 1.1648,1.3799 1.1648,2.3817 0,0.7869 -0.2214,1.4539 -0.6608,2.0038 -0.4425,0.5502 -1.0695,0.919 -1.887,1.1126 v 0.0431 c 0.919,0.1199 1.6381,0.4518 2.1574,0.9958 0.5193,0.5439 0.7776,1.2169 0.7776,2.0222 0,1.2416 -0.4487,2.2065 -1.3493,2.8888 -0.9003,0.6854 -2.1974,1.0264 -3.8908,1.0264 -1.6073,0 -2.8426,-0.2336 -3.7001,-0.7007 z m -0.7838,0.4765 h -3.1686 l -0.919,-2.8735 h -4.5912 l -0.9099,2.8735 h -3.1533 l 4.7024,-12.911 h 3.448 z m -4.7543,-5.1049 -1.3861,-4.3393 c -0.1015,-0.326 -0.1752,-0.7132 -0.2183,-1.1619 h -0.0706 c -0.0308,0.3781 -0.1046,0.7532 -0.2245,1.1248 l -1.4042,4.3764 z m -13.8761,0.6579 v 4.447 h -2.9106 v -12.911 h 4.5578 c 3.2547,0 4.8804,1.3706 4.8804,4.1151 0,1.2971 -0.4671,2.3451 -1.4014,3.147 -0.9343,0.7991 -2.179,1.2019 -3.7404,1.2019 z m 0,-6.2328 v 4.026 h 1.1432 c 1.5488,0 2.3233,-0.6791 2.3233,-2.0344 0,-1.3277 -0.7745,-1.9916 -2.3233,-1.9916 z m -4.3027,-2.2312 -4.0445,8.8512 c -0.756,1.6566 -1.4692,2.7845 -2.1421,3.3837 -0.673,0.6024 -1.5245,0.9003 -2.5569,0.9003 -0.6854,0 -1.2418,-0.0981 -1.675,-0.2948 v -2.6586 c 0.4915,0.3198 1.0018,0.4796 1.5304,0.4796 0.7285,0 1.3678,-0.5901 1.9177,-1.7671 l -4.2412,-8.8943 h 3.3162 l 2.1422,5.1662 c 0.1258,0.3135 0.2242,0.6639 0.2979,1.0542 h 0.0156 c 0.0675,-0.3226 0.1689,-0.6639 0.3073,-1.0174 l 2.0712,-5.203 z m -12.0107,12.911 h -7.7448 v -12.911 h 7.4466 v 2.3664 h -4.536 v 2.8735 h 4.2225 v 2.3573 h -4.2225 v 2.9534 h 4.8342 z"
         style="fill:#007dbe;fill-rule:evenodd;stroke:#000000;stroke-width:3.77952761;stroke-linecap:round;stroke-linejoin:round;stroke-dasharray:none;stroke-opacity:0;stroke-miterlimit:4"
         id="path932" />
    </g>
  </g>
</svg>
